OctagonVariable-Bottom.ufo
<glyph name="exclam" format="2">
  <advance width="240"/>
  <unicode hex="0021"/>
  <outline>
    <contour>
      <point x="75" y="240" type="line"/>
      <point x="166" y="240" type="line"/>
      <point x="166" y="260" type="line"/>
      <point x="75" y="260" type="line"/>
    </contour>
    <contour>
      <point x="75" y="240" type="line"/>
      <point x="95" y="240" type="line"/>
      <point x="30" y="550" type="line"/>
      <point x="10" y="550" type="line"/>
    </contour>
    <contour>
      <point x="110" y="250" type="line"/>
      <point x="130" y="250" type="line"/>
      <point x="130" y="412" type="line"/>
      <point x="110" y="412" type="line"/>
    </contour>
    <contour>
      <point x="146" y="240" type="line"/>
      <point x="166" y="240" type="line"/>
      <point x="230" y="550" type="line"/>
      <point x="210" y="550" type="line"/>
    </contour>
    <contour>
      <point x="112" y="395" type="line"/>
      <point x="125" y="410" type="line"/>
      <point x="31" y="545" type="line"/>
      <point x="18" y="530" type="line"/>
    </contour>
    <contour>
      <point x="19" y="530" type="line"/>
      <point x="220" y="530" type="line"/>
      <point x="220" y="550" type="line"/>
      <point x="19" y="550" type="line"/>
    </contour>
    <contour>
      <point x="127" y="395" type="line"/>
      <point x="221" y="530" type="line"/>
      <point x="208" y="545" type="line"/>
      <point x="114" y="410" type="line"/>
    </contour>
    <contour>
      <point x="37" y="50" type="line"/>
      <point x="202" y="50" type="line"/>
      <point x="202" y="68" type="line"/>
      <point x="37" y="68" type="line"/>
    </contour>
    <contour>
      <point x="51" y="50" type="line"/>
      <point x="122" y="78" type="line"/>
      <point x="113" y="98" type="line"/>
      <point x="37" y="64" type="line"/>
    </contour>
    <contour>
      <point x="188" y="50" type="line"/>
      <point x="202" y="64" type="line"/>
      <point x="125" y="99" type="line"/>
      <point x="116" y="79" type="line"/>
    </contour>
    <contour>
      <point x="37" y="50" type="line"/>
      <point x="57" y="50" type="line"/>
      <point x="57" y="225" type="line"/>
      <point x="37" y="225" type="line"/>
    </contour>
    <contour>
      <point x="113" y="83" type="line"/>
      <point x="126" y="83" type="line"/>
      <point x="126" y="100" type="line"/>
      <point x="113" y="100" type="line"/>
    </contour>
    <contour>
      <point x="182" y="50" type="line"/>
      <point x="202" y="50" type="line"/>
      <point x="202" y="225" type="line"/>
      <point x="182" y="225" type="line"/>
    </contour>
    <contour>
      <point x="114" y="85" type="line"/>
      <point x="123" y="105" type="line"/>
      <point x="51" y="225" type="line"/>
      <point x="37" y="211" type="line"/>
    </contour>
    <contour>
      <point x="40" y="207" type="line"/>
      <point x="202" y="207" type="line"/>
      <point x="202" y="225" type="line"/>
      <point x="40" y="225" type="line"/>
    </contour>
    <contour>
      <point x="125" y="85" type="line"/>
      <point x="201" y="211" type="line"/>
      <point x="187" y="225" type="line"/>
      <point x="116" y="105" type="line"/>
    </contour>
  </outline>
</glyph>
<glyph name="quotedbl" format="2">
  <advance width="222"/>
  <unicode hex="0022"/>
  <outline>
    <contour>
      <point x="30" y="337" type="line"/>
      <point x="102" y="337" type="line"/>
      <point x="102" y="350" type="line"/>
      <point x="30" y="350" type="line"/>
    </contour>
    <contour>
      <point x="41" y="337" type="line"/>
      <point x="68" y="382" type="line"/>
      <point x="59" y="394" type="line"/>
      <point x="30" y="344" type="line"/>
    </contour>
    <contour>
      <point x="90" y="337" type="line"/>
      <point x="102" y="344" type="line"/>
      <point x="72" y="395" type="line"/>
      <point x="63" y="383" type="line"/>
    </contour>
    <contour>
      <point x="30" y="337" type="line"/>
      <point x="44" y="337" type="line"/>
      <point x="44" y="549" type="line"/>
      <point x="30" y="549" type="line"/>
    </contour>
    <contour>
      <point x="59" y="386" type="line"/>
      <point x="73" y="386" type="line"/>
      <point x="73" y="399" type="line"/>
      <point x="59" y="399" type="line"/>
    </contour>
    <contour>
      <point x="88" y="337" type="line"/>
      <point x="102" y="337" type="line"/>
      <point x="102" y="549" type="line"/>
      <point x="88" y="549" type="line"/>
    </contour>
    <contour>
      <point x="59" y="387" type="line"/>
      <point x="70" y="399" type="line"/>
      <point x="41" y="549" type="line"/>
      <point x="30" y="537" type="line"/>
    </contour>
    <contour>
      <point x="32" y="535" type="line"/>
      <point x="102" y="535" type="line"/>
      <point x="102" y="549" type="line"/>
      <point x="32" y="549" type="line"/>
    </contour>
    <contour>
      <point x="73" y="387" type="line"/>
      <point x="101" y="537" type="line"/>
      <point x="90" y="549" type="line"/>
      <point x="63" y="399" type="line"/>
    </contour>
    <contour>
      <point x="120" y="337" type="line"/>
      <point x="192" y="337" type="line"/>
      <point x="192" y="350" type="line"/>
      <point x="120" y="350" type="line"/>
    </contour>
    <contour>
      <point x="131" y="337" type="line"/>
      <point x="158" y="382" type="line"/>
      <point x="149" y="394" type="line"/>
      <point x="120" y="344" type="line"/>
    </contour>
    <contour>
      <point x="180" y="337" type="line"/>
      <point x="192" y="344" type="line"/>
      <point x="162" y="395" type="line"/>
      <point x="153" y="383" type="line"/>
    </contour>
    <contour>
      <point x="120" y="337" type="line"/>
      <point x="134" y="337" type="line"/>
      <point x="134" y="549" type="line"/>
      <point x="120" y="549" type="line"/>
    </contour>
    <contour>
      <point x="149" y="386" type="line"/>
      <point x="163" y="386" type="line"/>
      <point x="163" y="399" type="line"/>
      <point x="149" y="399" type="line"/>
    </contour>
    <contour>
      <point x="178" y="337" type="line"/>
      <point x="192" y="337" type="line"/>
      <point x="192" y="549" type="line"/>
      <point x="178" y="549" type="line"/>
    </contour>
    <contour>
      <point x="150" y="387" type="line"/>
      <point x="160" y="399" type="line"/>
      <point x="131" y="549" type="line"/>
      <point x="120" y="537" type="line"/>
    </contour>
    <contour>
      <point x="122" y="535" type="line"/>
      <point x="192" y="535" type="line"/>
      <point x="192" y="549" type="line"/>
      <point x="122" y="549" type="line"/>
    </contour>
    <contour>
      <point x="163" y="387" type="line"/>
      <point x="191" y="537" type="line"/>
      <point x="180" y="549" type="line"/>
      <point x="153" y="399" type="line"/>
    </contour>
  </outline>
</glyph>
<glyph name="numbersign" format="2">
  <advance width="565"/>
  <unicode hex="0023"/>
  <outline>
    <contour>
      <point x="179" y="402" type="line"/>
      <point x="196" y="402" type="line"/>
      <point x="252" y="550" type="line"/>
      <point x="235" y="550" type="line"/>
    </contour>
    <contour>
      <point x="259" y="402" type="line"/>
      <point x="277" y="402" type="line"/>
      <point x="333" y="550" type="line"/>
      <point x="315" y="550" type="line"/>
    </contour>
    <contour>
      <point x="245" y="455" type="line"/>
      <point x="257" y="470" type="line"/>
      <point x="246" y="550" type="line"/>
      <point x="232" y="535" type="line"/>
    </contour>
    <contour>
      <point x="250" y="454" type="line"/>
      <point x="326" y="534" type="line"/>
      <point x="320" y="550" type="line"/>
      <point x="244" y="469" type="line"/>
    </contour>
    <contour>
      <point x="235" y="530" type="line"/>
      <point x="326" y="530" type="line"/>
      <point x="326" y="550" type="line"/>
      <point x="235" y="550" type="line"/>
    </contour>
    <contour>
      <point x="105" y="95" type="line"/>
      <point x="93" y="80" type="line"/>
      <point x="128" y="50" type="line"/>
      <point x="142" y="65" type="line"/>
    </contour>
    <contour>
      <point x="100" y="96" type="line"/>
      <point x="48" y="66" type="line"/>
      <point x="54" y="50" type="line"/>
      <point x="107" y="81" type="line"/>
    </contour>
    <contour>
      <point x="140" y="70" type="line"/>
      <point x="49" y="70" type="line"/>
      <point x="49" y="50" type="line"/>
      <point x="140" y="50" type="line"/>
    </contour>
    <contour>
      <point x="217" y="402" type="line"/>
      <point x="234" y="402" type="line"/>
      <point x="261" y="472" type="line"/>
      <point x="246" y="478" type="line"/>
    </contour>
    <contour>
      <point x="321" y="278" type="line"/>
      <point x="338" y="278" type="line"/>
      <point x="435" y="550" type="line"/>
      <point x="418" y="550" type="line"/>
    </contour>
    <contour>
      <point x="401" y="278" type="line"/>
      <point x="419" y="278" type="line"/>
      <point x="516" y="550" type="line"/>
      <point x="498" y="550" type="line"/>
    </contour>
    <contour>
      <point x="428" y="455" type="line"/>
      <point x="440" y="470" type="line"/>
      <point x="429" y="550" type="line"/>
      <point x="415" y="535" type="line"/>
    </contour>
    <contour>
      <point x="433" y="454" type="line"/>
      <point x="509" y="534" type="line"/>
      <point x="503" y="550" type="line"/>
      <point x="427" y="469" type="line"/>
    </contour>
    <contour>
      <point x="418" y="530" type="line"/>
      <point x="509" y="530" type="line"/>
      <point x="509" y="550" type="line"/>
      <point x="418" y="550" type="line"/>
    </contour>
    <contour>
      <point x="298" y="95" type="line"/>
      <point x="286" y="80" type="line"/>
      <point x="321" y="50" type="line"/>
      <point x="335" y="65" type="line"/>
    </contour>
    <contour>
      <point x="293" y="96" type="line"/>
      <point x="241" y="66" type="line"/>
      <point x="247" y="50" type="line"/>
      <point x="300" y="81" type="line"/>
    </contour>
    <contour>
      <point x="333" y="70" type="line"/>
      <point x="242" y="70" type="line"/>
      <point x="242" y="50" type="line"/>
      <point x="333" y="50" type="line"/>
    </contour>
    <contour>
      <point x="359" y="278" type="line"/>
      <point x="377" y="278" type="line"/>
      <point x="444" y="472" type="line"/>
      <point x="429" y="478" type="line"/>
    </contour>
    <contour>
      <point x="22" y="194" type="line"/>
      <point x="22" y="285" type="line"/>
      <point x="5" y="285" type="line"/>
      <point x="5" y="194" type="line"/>
    </contour>
    <contour>
      <point x="53" y="215" type="line"/>
      <point x="119" y="215" type="line"/>
      <point x="125" y="232" type="line"/>
      <point x="53" y="232" type="line"/>
    </contour>
    <contour>
      <point x="5" y="268" type="line"/>
      <point x="134" y="268" type="line"/>
      <point x="140" y="285" type="line"/>
      <point x="5" y="285" type="line"/>
    </contour>
    <contour>
      <point x="71" y="229" type="line"/>
      <point x="21" y="285" type="line"/>
      <point x="7" y="275" type="line"/>
      <point x="58" y="219" type="line"/>
    </contour>
    <contour>
      <point x="5" y="211" type="line"/>
      <point x="5" y="194" type="line"/>
      <point x="113" y="194" type="line"/>
      <point x="119" y="211" type="line"/>
    </contour>
    <contour>
      <point x="71" y="218" type="line"/>
      <point x="58" y="228" type="line"/>
      <point x="7" y="204" type="line"/>
      <point x="21" y="194" type="line"/>
    </contour>
    <contour>
      <point x="501" y="285" type="line"/>
      <point x="501" y="194" type="line"/>
      <point x="518" y="194" type="line"/>
      <point x="518" y="285" type="line"/>
    </contour>
    <contour>
      <point x="199" y="215" type="line"/>
      <point x="470" y="215" type="line"/>
      <point x="470" y="232" type="line"/>
      <point x="205" y="232" type="line"/>
    </contour>
    <contour>
      <point x="452" y="218" type="line"/>
      <point x="502" y="194" type="line"/>
      <point x="516" y="204" type="line"/>
      <point x="465" y="228" type="line"/>
    </contour>
    <contour>
      <point x="452" y="229" type="line"/>
      <point x="465" y="219" type="line"/>
      <point x="516" y="275" type="line"/>
      <point x="502" y="285" type="line"/>
    </contour>
    <contour>
      <point x="518" y="285" type="line"/>
      <point x="222" y="285" type="line"/>
      <point x="216" y="268" type="line"/>
      <point x="518" y="268" type="line"/>
    </contour>
    <contour>
      <point x="518" y="211" type="line"/>
      <point x="198" y="211" type="line"/>
      <point x="192" y="194" type="line"/>
      <point x="518" y="194" type="line"/>
    </contour>
    <contour>
      <point x="538" y="406" type="line"/>
      <point x="538" y="315" type="line"/>
      <point x="555" y="315" type="line"/>
      <point x="555" y="406" type="line"/>
    </contour>
    <contour>
      <point x="507" y="353" type="line"/>
      <point x="439" y="353" type="line"/>
      <point x="433" y="336" type="line"/>
      <point x="507" y="336" type="line"/>
    </contour>
    <contour>
      <point x="555" y="332" type="line"/>
      <point x="427" y="332" type="line"/>
      <point x="421" y="315" type="line"/>
      <point x="555" y="315" type="line"/>
    </contour>
    <contour>
      <point x="489" y="339" type="line"/>
      <point x="539" y="315" type="line"/>
      <point x="553" y="325" type="line"/>
      <point x="502" y="349" type="line"/>
    </contour>
    <contour>
      <point x="555" y="389" type="line"/>
      <point x="555" y="406" type="line"/>
      <point x="454" y="406" type="line"/>
      <point x="448" y="389" type="line"/>
    </contour>
    <contour>
      <point x="489" y="350" type="line"/>
      <point x="502" y="340" type="line"/>
      <point x="553" y="396" type="line"/>
      <point x="539" y="406" type="line"/>
    </contour>
    <contour>
      <point x="59" y="315" type="line"/>
      <point x="59" y="406" type="line"/>
      <point x="42" y="406" type="line"/>
      <point x="42" y="315" type="line"/>
    </contour>
    <contour>
      <point x="359" y="353" type="line"/>
      <point x="90" y="353" type="line"/>
      <point x="90" y="336" type="line"/>
      <point x="353" y="336" type="line"/>
    </contour>
    <contour>
      <point x="375" y="406" type="line"/>
      <point x="42" y="406" type="line"/>
      <point x="42" y="389" type="line"/>
      <point x="369" y="389" type="line"/>
    </contour>
    <contour>
      <point x="108" y="350" type="line"/>
      <point x="58" y="406" type="line"/>
      <point x="44" y="396" type="line"/>
      <point x="95" y="340" type="line"/>
    </contour>
    <contour>
      <point x="345" y="332" type="line"/>
      <point x="42" y="332" type="line"/>
      <point x="42" y="315" type="line"/>
      <point x="339" y="315" type="line"/>
    </contour>
    <contour>
      <point x="108" y="339" type="line"/>
      <point x="95" y="349" type="line"/>
      <point x="44" y="325" type="line"/>
      <point x="58" y="315" type="line"/>
    </contour>
    <contour>
      <point x="167" y="324" type="line"/>
      <point x="149" y="324" type="line"/>
      <point x="41" y="50" type="line"/>
      <point x="59" y="50" type="line"/>
    </contour>
    <contour>
      <point x="205" y="324" type="line"/>
      <point x="187" y="324" type="line"/>
      <point x="92" y="85" type="line"/>
      <point x="107" y="74" type="line"/>
    </contour>
    <contour>
      <point x="248" y="324" type="line"/>
      <point x="230" y="324" type="line"/>
      <point x="122" y="50" type="line"/>
      <point x="140" y="50" type="line"/>
    </contour>
    <contour>
      <point x="308" y="198" type="line"/>
      <point x="290" y="198" type="line"/>
      <point x="234" y="50" type="line"/>
      <point x="252" y="50" type="line"/>
    </contour>
    <contour>
      <point x="347" y="198" type="line"/>
      <point x="329" y="198" type="line"/>
      <point x="285" y="85" type="line"/>
      <point x="300" y="74" type="line"/>
    </contour>
    <contour>
      <point x="389" y="198" type="line"/>
      <point x="371" y="198" type="line"/>
      <point x="315" y="50" type="line"/>
      <point x="333" y="50" type="line"/>
    </contour>
  </outline>
</glyph>
<glyph name="asterisk" format="2">
  <advance width="382"/>
  <unicode hex="002A"/>
  <outline>
    <contour>
      <point x="111" y="340" type="line"/>
      <point x="201" y="388" type="line"/>
      <point x="191" y="398" type="line"/>
      <point x="103" y="353" type="line"/>
    </contour>
    <contour>
      <point x="55" y="559" type="line"/>
      <point x="67" y="548" type="line"/>
      <point x="99" y="580" type="line"/>
      <point x="87" y="591" type="line"/>
    </contour>
    <contour>
      <point x="77" y="370" type="line"/>
      <point x="109" y="339" type="line"/>
      <point x="120" y="350" type="line"/>
      <point x="89" y="382" type="line"/>
    </contour>
    <contour>
      <point x="123" y="449" type="line"/>
      <point x="138" y="450" type="line"/>
      <point x="67" y="567" type="line"/>
      <point x="55" y="559" type="line"/>
    </contour>
    <contour>
      <point x="77" y="370" type="line"/>
      <point x="91" y="364" type="line"/>
      <point x="134" y="448" type="line"/>
      <point x="123" y="459" type="line"/>
    </contour>
    <contour>
      <point x="86" y="362" type="line"/>
      <point x="154" y="408" type="line"/>
      <point x="156" y="425" type="line"/>
      <point x="85" y="378" type="line"/>
    </contour>
    <contour>
      <point x="63" y="551" type="line"/>
      <point x="151" y="458" type="line"/>
      <point x="154" y="471" type="line"/>
      <point x="63" y="567" type="line"/>
    </contour>
    <contour>
      <point x="101" y="346" type="line"/>
      <point x="117" y="346" type="line"/>
      <point x="164" y="417" type="line"/>
      <point x="147" y="416" type="line"/>
    </contour>
    <contour>
      <point x="147" y="464" type="line"/>
      <point x="160" y="467" type="line"/>
      <point x="96" y="584" type="line"/>
      <point x="79" y="583" type="line"/>
    </contour>
    <contour>
      <point x="79" y="578" type="line"/>
      <point x="181" y="504" type="line"/>
      <point x="192" y="515" type="line"/>
      <point x="87" y="591" type="line"/>
    </contour>
    <contour>
      <point x="126" y="443" type="line"/>
      <point x="171" y="431" type="line"/>
      <point x="173" y="446" type="line"/>
      <point x="127" y="458" type="line"/>
    </contour>
    <contour>
      <point x="183" y="389" type="line"/>
      <point x="198" y="389" type="line"/>
      <point x="186" y="443" type="line"/>
      <point x="169" y="442" type="line"/>
    </contour>
    <contour>
      <point x="146" y="416" type="line"/>
      <point x="156" y="406" type="line"/>
      <point x="217" y="467" type="line"/>
      <point x="207" y="477" type="line"/>
    </contour>
    <contour>
      <point x="146" y="463" type="line"/>
      <point x="200" y="409" type="line"/>
      <point x="210" y="419" type="line"/>
      <point x="156" y="473" type="line"/>
    </contour>
    <contour>
      <point x="169" y="438" type="line"/>
      <point x="186" y="440" type="line"/>
      <point x="195" y="513" type="line"/>
      <point x="178" y="513" type="line"/>
    </contour>
    <contour>
      <point x="177" y="430" type="line"/>
      <point x="252" y="439" type="line"/>
      <point x="250" y="455" type="line"/>
      <point x="178" y="447" type="line"/>
    </contour>
    <contour>
      <point x="186" y="387" type="line"/>
      <point x="295" y="319" type="line"/>
      <point x="302" y="331" type="line"/>
      <point x="195" y="397" type="line"/>
    </contour>
    <contour>
      <point x="178" y="513" type="line"/>
      <point x="188" y="503" type="line"/>
      <point x="283" y="555" type="line"/>
      <point x="275" y="568" type="line"/>
    </contour>
    <contour>
      <point x="287" y="327" type="line"/>
      <point x="303" y="327" type="line"/>
      <point x="208" y="418" type="line"/>
      <point x="194" y="415" type="line"/>
    </contour>
    <contour>
      <point x="203" y="471" type="line"/>
      <point x="215" y="469" type="line"/>
      <point x="283" y="559" type="line"/>
      <point x="266" y="559" type="line"/>
    </contour>
    <contour>
      <point x="200" y="411" type="line"/>
      <point x="319" y="343" type="line"/>
      <point x="320" y="360" type="line"/>
      <point x="203" y="424" type="line"/>
    </contour>
    <contour>
      <point x="211" y="463" type="line"/>
      <point x="298" y="527" type="line"/>
      <point x="299" y="544" type="line"/>
      <point x="207" y="476" type="line"/>
    </contour>
    <contour>
      <point x="314" y="346" type="line"/>
      <point x="327" y="351" type="line"/>
      <point x="249" y="457" type="line"/>
      <point x="239" y="447" type="line"/>
    </contour>
    <contour>
      <point x="241" y="448" type="line"/>
      <point x="251" y="438" type="line"/>
      <point x="306" y="536" type="line"/>
      <point x="294" y="544" type="line"/>
    </contour>
    <contour>
      <point x="284" y="331" type="line"/>
      <point x="295" y="319" type="line"/>
      <point x="327" y="351" type="line"/>
      <point x="316" y="363" type="line"/>
    </contour>
    <contour>
      <point x="263" y="556" type="line"/>
      <point x="294" y="524" type="line"/>
      <point x="306" y="536" type="line"/>
      <point x="275" y="568" type="line"/>
    </contour>
  </outline>
</glyph>
<glyph name="plus" format="2">
  <advance width="461"/>
  <unicode hex="002B"/>
  <outline>
    <contour>
      <point x="262" y="143" type="line"/>
      <point x="280" y="143" type="line"/>
      <point x="280" y="479" type="line"/>
      <point x="262" y="479" type="line"/>
    </contour>
    <contour>
      <point x="15" y="264" type="line"/>
      <point x="32" y="264" type="line"/>
      <point x="32" y="349" type="line"/>
      <point x="15" y="349" type="line"/>
    </contour>
    <contour>
      <point x="31" y="264" type="line"/>
      <point x="81" y="291" type="line"/>
      <point x="68" y="301" type="line"/>
      <point x="17" y="274" type="line"/>
    </contour>
    <contour>
      <point x="189" y="143" type="line"/>
      <point x="280" y="143" type="line"/>
      <point x="280" y="161" type="line"/>
      <point x="189" y="161" type="line"/>
    </contour>
    <contour>
      <point x="194" y="143" type="line"/>
      <point x="239" y="164" type="line"/>
      <point x="232" y="179" type="line"/>
      <point x="188" y="159" type="line"/>
    </contour>
    <contour>
      <point x="15" y="264" type="line"/>
      <point x="188" y="264" type="line"/>
      <point x="188" y="281" type="line"/>
      <point x="15" y="281" type="line"/>
    </contour>
    <contour>
      <point x="68" y="292" type="line"/>
      <point x="81" y="302" type="line"/>
      <point x="31" y="349" type="line"/>
      <point x="17" y="339" type="line"/>
    </contour>
    <contour>
      <point x="266" y="144" type="line"/>
      <point x="279" y="156" type="line"/>
      <point x="234" y="176" type="line"/>
      <point x="223" y="163" type="line"/>
    </contour>
    <contour>
      <point x="63" y="288" type="line"/>
      <point x="188" y="288" type="line"/>
      <point x="188" y="305" type="line"/>
      <point x="63" y="305" type="line"/>
    </contour>
    <contour>
      <point x="15" y="332" type="line"/>
      <point x="188" y="332" type="line"/>
      <point x="188" y="349" type="line"/>
      <point x="15" y="349" type="line"/>
    </contour>
    <contour>
      <point x="181" y="143" type="line"/>
      <point x="199" y="143" type="line"/>
      <point x="199" y="479" type="line"/>
      <point x="181" y="479" type="line"/>
    </contour>
    <contour>
      <point x="239" y="164" type="line"/>
      <point x="239" y="426" type="line"/>
      <point x="224" y="426" type="line"/>
      <point x="224" y="164" type="line"/>
    </contour>
    <contour>
      <point x="277" y="265" type="line"/>
      <point x="446" y="265" type="line"/>
      <point x="446" y="282" type="line"/>
      <point x="277" y="282" type="line"/>
    </contour>
    <contour>
      <point x="277" y="289" type="line"/>
      <point x="398" y="289" type="line"/>
      <point x="398" y="306" type="line"/>
      <point x="277" y="306" type="line"/>
    </contour>
    <contour>
      <point x="229" y="409" type="line"/>
      <point x="240" y="422" type="line"/>
      <point x="195" y="491" type="line"/>
      <point x="182" y="479" type="line"/>
    </contour>
    <contour>
      <point x="430" y="265" type="line"/>
      <point x="444" y="275" type="line"/>
      <point x="393" y="302" type="line"/>
      <point x="380" y="292" type="line"/>
    </contour>
    <contour>
      <point x="277" y="333" type="line"/>
      <point x="446" y="333" type="line"/>
      <point x="446" y="350" type="line"/>
      <point x="277" y="350" type="line"/>
    </contour>
    <contour>
      <point x="231" y="406" type="line"/>
      <point x="273" y="476" type="line"/>
      <point x="267" y="492" type="line"/>
      <point x="224" y="421" type="line"/>
    </contour>
    <contour>
      <point x="181" y="474" type="line"/>
      <point x="280" y="474" type="line"/>
      <point x="280" y="492" type="line"/>
      <point x="181" y="492" type="line"/>
    </contour>
    <contour>
      <point x="393" y="293" type="line"/>
      <point x="444" y="340" type="line"/>
      <point x="430" y="350" type="line"/>
      <point x="380" y="303" type="line"/>
    </contour>
    <contour>
      <point x="429" y="265" type="line"/>
      <point x="446" y="265" type="line"/>
      <point x="446" y="350" type="line"/>
      <point x="429" y="350" type="line"/>
    </contour>
  </outline>
</glyph>
<glyph name="comma" format="2">
  <advance width="195"/>
  <unicode hex="002C"/>
  <outline>
    <contour>
      <point x="15" y="104" type="line"/>
      <point x="180" y="104" type="line"/>
      <point x="180" y="122" type="line"/>
      <point x="15" y="122" type="line"/>
    </contour>
    <contour>
      <point x="29" y="104" type="line"/>
      <point x="100" y="130" type="line"/>
      <point x="91" y="150" type="line"/>
      <point x="15" y="118" type="line"/>
    </contour>
    <contour>
      <point x="166" y="104" type="line"/>
      <point x="180" y="118" type="line"/>
      <point x="103" y="151" type="line"/>
      <point x="94" y="131" type="line"/>
    </contour>
    <contour>
      <point x="15" y="104" type="line"/>
      <point x="35" y="104" type="line"/>
      <point x="35" y="269" type="line"/>
      <point x="15" y="269" type="line"/>
    </contour>
    <contour>
      <point x="91" y="135" type="line"/>
      <point x="104" y="135" type="line"/>
      <point x="104" y="152" type="line"/>
      <point x="91" y="152" type="line"/>
    </contour>
    <contour>
      <point x="160" y="104" type="line"/>
      <point x="180" y="104" type="line"/>
      <point x="180" y="269" type="line"/>
      <point x="160" y="269" type="line"/>
    </contour>
    <contour>
      <point x="92" y="137" type="line"/>
      <point x="101" y="157" type="line"/>
      <point x="29" y="269" type="line"/>
      <point x="15" y="255" type="line"/>
    </contour>
    <contour>
      <point x="18" y="251" type="line"/>
      <point x="180" y="251" type="line"/>
      <point x="180" y="269" type="line"/>
      <point x="18" y="269" type="line"/>
    </contour>
    <contour>
      <point x="103" y="137" type="line"/>
      <point x="179" y="255" type="line"/>
      <point x="165" y="269" type="line"/>
      <point x="94" y="157" type="line"/>
    </contour>
    <contour>
      <point x="15" y="-23" type="line"/>
      <point x="35" y="-23" type="line"/>
      <point x="35" y="57" type="line"/>
      <point x="15" y="60" type="line"/>
    </contour>
    <contour>
      <point x="28" y="45" type="line"/>
      <point x="94" y="104" type="line"/>
      <point x="77" y="118" type="line"/>
      <point x="15" y="60" type="line"/>
    </contour>
    <contour>
      <point x="30" y="-35" type="line"/>
      <point x="180" y="104" type="line"/>
      <point x="167" y="119" type="line"/>
      <point x="15" y="-22" type="line"/>
      <point x="15" y="-35" type="line"/>
    </contour>
  </outline>
</glyph>
<glyph name="two" format="2">
  <advance width="486"/>
  <unicode hex="0032"/>
  <outline>
    <contour>
      <point x="144" y="236" type="line"/>
      <point x="393" y="321" type="line"/>
      <point x="374" y="332" type="line"/>
      <point x="132" y="249" type="line"/>
    </contour>
    <contour>
      <point x="21" y="50" type="line"/>
      <point x="41" y="50" type="line"/>
      <point x="41" y="159" type="line"/>
      <point x="21" y="159" type="line"/>
    </contour>
    <contour>
      <point x="49" y="58" type="line"/>
      <point x="95" y="116" type="line"/>
      <point x="79" y="128" type="line"/>
      <point x="31" y="68" type="line"/>
    </contour>
    <contour>
      <point x="80" y="110" type="line"/>
      <point x="92" y="125" type="line"/>
      <point x="38" y="169" type="line"/>
      <point x="26" y="152" type="line"/>
    </contour>
    <contour>
      <point x="26" y="50" type="line"/>
      <point x="476" y="50" type="line"/>
      <point x="476" y="70" type="line"/>
      <point x="26" y="70" type="line"/>
    </contour>
    <contour>
      <point x="40" y="151" type="line"/>
      <point x="110" y="294" type="line"/>
      <point x="88" y="299" type="line"/>
      <point x="21" y="159" type="line"/>
    </contour>
    <contour>
      <point x="74" y="116" type="line"/>
      <point x="95" y="116" type="line"/>
      <point x="149" y="238" type="line"/>
      <point x="131" y="246" type="line"/>
    </contour>
    <contour>
      <point x="93" y="115" type="line"/>
      <point x="234" y="239" type="line"/>
      <point x="221" y="253" type="line"/>
      <point x="83" y="130" type="line"/>
    </contour>
    <contour>
      <point x="80" y="110" type="line"/>
      <point x="364" y="110" type="line"/>
      <point x="364" y="130" type="line"/>
      <point x="80" y="130" type="line"/>
    </contour>
    <contour>
      <point x="139" y="235" type="line"/>
      <point x="145" y="255" type="line"/>
      <point x="102" y="303" type="line"/>
      <point x="90" y="286" type="line"/>
    </contour>
    <contour>
      <point x="222" y="238" type="line"/>
      <point x="222" y="255" type="line"/>
      <point x="144" y="254" type="line"/>
      <point x="138" y="236" type="line"/>
    </contour>
    <contour>
      <point x="10" y="341" type="line"/>
      <point x="28" y="351" type="line"/>
      <point x="28" y="443" type="line"/>
      <point x="10" y="446" type="line"/>
    </contour>
    <contour>
      <point x="452" y="64" type="line"/>
      <point x="465" y="75" type="line"/>
      <point x="359" y="129" type="line"/>
      <point x="345" y="116" type="line"/>
    </contour>
    <contour>
      <point x="10" y="341" type="line"/>
      <point x="194" y="341" type="line"/>
      <point x="194" y="361" type="line"/>
      <point x="10" y="361" type="line"/>
    </contour>
    <contour>
      <point x="104" y="288" type="line"/>
      <point x="273" y="343" type="line"/>
      <point x="264" y="359" type="line"/>
      <point x="88" y="299" type="line"/>
    </contour>
    <contour>
      <point x="233" y="239" type="line"/>
      <point x="366" y="273" type="line"/>
      <point x="361" y="290" type="line"/>
      <point x="219" y="253" type="line"/>
    </contour>
    <contour>
      <point x="19" y="435" type="line"/>
      <point x="101" y="371" type="line"/>
      <point x="180" y="377" type="line"/>
      <point x="187" y="396" type="line"/>
      <point x="104" y="390" type="line"/>
      <point x="26" y="451" type="line"/>
    </contour>
    <contour>
      <point x="221" y="238" type="line"/>
      <point x="471" y="238" type="line"/>
      <point x="471" y="255" type="line"/>
      <point x="221" y="255" type="line"/>
    </contour>
    <contour>
      <point x="360" y="111" type="line"/>
      <point x="473" y="245" type="line"/>
      <point x="458" y="255" type="line"/>
      <point x="346" y="122" type="line"/>
    </contour>
    <contour>
      <point x="456" y="61" type="line"/>
      <point x="476" y="61" type="line"/>
      <point x="476" y="255" type="line"/>
      <point x="456" y="255" type="line"/>
    </contour>
    <contour>
      <point x="194" y="341" type="line"/>
      <point x="194" y="394" type="line"/>
      <point x="176" y="394" type="line"/>
      <point x="176" y="351" type="line"/>
    </contour>
    <contour>
      <point x="20" y="428" type="line"/>
      <point x="132" y="535" type="line"/>
      <point x="119" y="550" type="line"/>
      <point x="10" y="446" type="line"/>
    </contour>
    <contour>
      <point x="117" y="379" type="line"/>
      <point x="176" y="436" type="line"/>
      <point x="164" y="452" type="line"/>
      <point x="96" y="387" type="line"/>
    </contour>
    <contour>
      <point x="187" y="379" type="line"/>
      <point x="222" y="402" type="line"/>
      <point x="211" y="417" type="line"/>
      <point x="176" y="394" type="line"/>
    </contour>
    <contour>
      <point x="211" y="396" type="line"/>
      <point x="245" y="396" type="line"/>
      <point x="245" y="417" type="line"/>
      <point x="211" y="417" type="line"/>
    </contour>
    <contour>
      <point x="210" y="403" type="line"/>
      <point x="230" y="410" type="line"/>
      <point x="180" y="445" type="line"/>
      <point x="161" y="436" type="line"/>
    </contour>
    <contour>
      <point x="254" y="344" type="line"/>
      <point x="272" y="344" type="line"/>
      <point x="272" y="398" type="line"/>
      <point x="254" y="398" type="line"/>
    </contour>
    <contour>
      <point x="349" y="281" type="line"/>
      <point x="367" y="281" type="line"/>
      <point x="392" y="327" type="line"/>
      <point x="374" y="327" type="line"/>
    </contour>
    <contour>
      <point x="366" y="273" type="line"/>
      <point x="471" y="301" type="line"/>
      <point x="460" y="313" type="line"/>
      <point x="359" y="289" type="line"/>
    </contour>
    <contour>
      <point x="260" y="382" type="line"/>
      <point x="271" y="397" type="line"/>
      <point x="245" y="417" type="line"/>
      <point x="235" y="402" type="line"/>
    </contour>
    <contour>
      <point x="163" y="436" type="line"/>
      <point x="180" y="446" type="line"/>
      <point x="131" y="545" type="line"/>
      <point x="114" y="534" type="line"/>
    </contour>
    <contour>
      <point x="258" y="339" type="line"/>
      <point x="373" y="320" type="line"/>
      <point x="373" y="338" type="line"/>
      <point x="258" y="358" type="line"/>
    </contour>
    <contour>
      <point x="249" y="404" type="line"/>
      <point x="306" y="440" type="line"/>
      <point x="286" y="446" type="line"/>
      <point x="228" y="410" type="line"/>
    </contour>
    <contour>
      <point x="170" y="434" type="line"/>
      <point x="293" y="434" type="line"/>
      <point x="295" y="454" type="line"/>
      <point x="170" y="454" type="line"/>
    </contour>
    <contour>
      <point x="256" y="379" type="line"/>
      <point x="375" y="393" type="line"/>
      <point x="371" y="410" type="line"/>
      <point x="253" y="396" type="line"/>
    </contour>
    <contour>
      <point x="458" y="299" type="line"/>
      <point x="464" y="316" type="line"/>
      <point x="374" y="339" type="line"/>
      <point x="368" y="321" type="line"/>
    </contour>
    <contour>
      <point x="365" y="324" type="line"/>
      <point x="383" y="324" type="line"/>
      <point x="383" y="405" type="line"/>
      <point x="365" y="405" type="line"/>
    </contour>
    <contour>
      <point x="122" y="530" type="line"/>
      <point x="365" y="530" type="line"/>
      <point x="365" y="550" type="line"/>
      <point x="119" y="550" type="line"/>
    </contour>
    <contour>
      <point x="369" y="393" type="line"/>
      <point x="381" y="408" type="line"/>
      <point x="295" y="454" type="line"/>
      <point x="283" y="439" type="line"/>
    </contour>
    <contour>
      <point x="298" y="436" type="line"/>
      <point x="372" y="532" type="line"/>
      <point x="358" y="545" type="line"/>
      <point x="283" y="449" type="line"/>
    </contour>
    <contour>
      <point x="453" y="301" type="line"/>
      <point x="471" y="301" type="line"/>
      <point x="471" y="465" type="line"/>
      <point x="453" y="465" type="line"/>
    </contour>
    <contour>
      <point x="374" y="393" type="line"/>
      <point x="465" y="449" type="line"/>
      <point x="461" y="467" type="line"/>
      <point x="371" y="411" type="line"/>
    </contour>
    <contour>
      <point x="460" y="449" type="line"/>
      <point x="471" y="465" type="line"/>
      <point x="365" y="550" type="line"/>
      <point x="353" y="534" type="line"/>
    </contour>
  </outline>
</glyph>
<glyph name="four" format="2">
  <advance width="495"/>
  <unicode hex="0034"/>
  <outline>
    <contour>
      <point x="332" y="530" type="line"/>
      <point x="100" y="530" type="line"/>
    </contour>
    <contour>
      <point x="218" y="384" type="line"/>
      <point x="121" y="539" type="line"/>
      <point x="102" y="532" type="line"/>
      <point x="199" y="377" type="line"/>
    </contour>
    <contour>
      <point x="312" y="547" type="line"/>
      <point x="199" y="382" type="line"/>
      <point x="215" y="372" type="line"/>
      <point x="326" y="535" type="line"/>
    </contour>
    <contour>
      <point x="320" y="550" type="line"/>
      <point x="184" y="317" type="line"/>
      <point x="203" y="316" type="line"/>
      <point x="342" y="550" type="line"/>
    </contour>
    <contour>
      <point x="265" y="169" type="line"/>
      <point x="15" y="169" type="line"/>
      <point x="15" y="149" type="line"/>
      <point x="245" y="149" type="line"/>
    </contour>
    <contour>
      <point x="337" y="550" type="line"/>
      <point x="100" y="550" type="line"/>
      <point x="100" y="530" type="line"/>
      <point x="330" y="530" type="line"/>
    </contour>
    <contour>
      <point x="100" y="550" type="line"/>
      <point x="10" y="384" type="line"/>
      <point x="28" y="376" type="line"/>
      <point x="118" y="542" type="line"/>
    </contour>
    <contour>
      <point x="465" y="324" type="line"/>
      <point x="465" y="160" type="line"/>
      <point x="485" y="160" type="line"/>
      <point x="485" y="324" type="line"/>
    </contour>
    <contour>
      <point x="240" y="324" type="line"/>
      <point x="191" y="324" type="line"/>
      <point x="186" y="307" type="line"/>
      <point x="240" y="307" type="line"/>
    </contour>
    <contour>
      <point x="200" y="384" type="line"/>
      <point x="103" y="193" type="line"/>
      <point x="120" y="188" type="line"/>
      <point x="221" y="384" type="line"/>
    </contour>
    <contour>
      <point x="10" y="384" type="line"/>
      <point x="10" y="149" type="line"/>
      <point x="30" y="149" type="line"/>
      <point x="30" y="384" type="line"/>
    </contour>
    <contour>
      <point x="103" y="189" type="line"/>
      <point x="17" y="170" type="line"/>
      <point x="31" y="157" type="line"/>
      <point x="118" y="178" type="line"/>
    </contour>
    <contour>
      <point x="229" y="50" type="line"/>
      <point x="429" y="50" type="line"/>
      <point x="429" y="70" type="line"/>
      <point x="229" y="70" type="line"/>
    </contour>
    <contour>
      <point x="242" y="50" type="line"/>
      <point x="334" y="82" type="line"/>
      <point x="321" y="95" type="line"/>
      <point x="229" y="63" type="line"/>
    </contour>
    <contour>
      <point x="416" y="50" type="line"/>
      <point x="429" y="63" type="line"/>
      <point x="337" y="95" type="line"/>
      <point x="324" y="82" type="line"/>
    </contour>
    <contour>
      <point x="229" y="315" type="line"/>
      <point x="249" y="315" type="line"/>
      <point x="249" y="393" type="line"/>
      <point x="229" y="393" type="line"/>
    </contour>
    <contour>
      <point x="319" y="80" type="line"/>
      <point x="339" y="80" type="line"/>
      <point x="339" y="314" type="line"/>
      <point x="319" y="314" type="line"/>
    </contour>
    <contour>
      <point x="321" y="300" type="line"/>
      <point x="334" y="315" type="line"/>
      <point x="247" y="383" type="line"/>
      <point x="234" y="370" type="line"/>
    </contour>
    <contour>
      <point x="234" y="373" type="line"/>
      <point x="429" y="373" type="line"/>
      <point x="429" y="393" type="line"/>
      <point x="234" y="393" type="line"/>
    </contour>
    <contour>
      <point x="336" y="300" type="line"/>
      <point x="429" y="370" type="line"/>
      <point x="416" y="383" type="line"/>
      <point x="323" y="315" type="line"/>
    </contour>
    <contour>
      <point x="244" y="326" type="line"/>
      <point x="228" y="314" type="line"/>
      <point x="319" y="183" type="line"/>
      <point x="333" y="196" type="line"/>
    </contour>
    <contour>
      <point x="316" y="189" type="line"/>
      <point x="230" y="162" type="line"/>
      <point x="247" y="147" type="line"/>
      <point x="332" y="176" type="line"/>
    </contour>
    <contour>
      <point x="185" y="319" type="line"/>
      <point x="101" y="190" type="line"/>
      <point x="116" y="177" type="line"/>
      <point x="201" y="311" type="line"/>
    </contour>
    <contour>
      <point x="431" y="310" type="line"/>
      <point x="431" y="393" type="line"/>
      <point x="411" y="393" type="line"/>
      <point x="411" y="310" type="line"/>
    </contour>
    <contour>
      <point x="418" y="328" type="line"/>
      <point x="325" y="193" type="line"/>
      <point x="339" y="181" type="line"/>
      <point x="431" y="314" type="line"/>
    </contour>
    <contour>
      <point x="340" y="190" type="line"/>
      <point x="324" y="177" type="line"/>
      <point x="416" y="147" type="line"/>
      <point x="433" y="164" type="line"/>
    </contour>
    <contour>
      <point x="485" y="169" type="line"/>
      <point x="406" y="169" type="line"/>
      <point x="416" y="149" type="line"/>
      <point x="485" y="149" type="line"/>
    </contour>
    <contour>
      <point x="481" y="324" type="line"/>
      <point x="420" y="324" type="line"/>
      <point x="420" y="307" type="line"/>
      <point x="481" y="307" type="line"/>
    </contour>
    <contour>
      <point x="229" y="60" type="line"/>
      <point x="249" y="60" type="line"/>
      <point x="249" y="160" type="line"/>
      <point x="229" y="160" type="line"/>
    </contour>
    <contour>
      <point x="431" y="50" type="line"/>
      <point x="431" y="160" type="line"/>
      <point x="411" y="160" type="line"/>
      <point x="411" y="50" type="line"/>
    </contour>
    <contour>
      <point x="463" y="320" type="line"/>
      <point x="405" y="193" type="line"/>
      <point x="418" y="180" type="line"/>
      <point x="478" y="309" type="line"/>
    </contour>
    <contour>
      <point x="419" y="192" type="line"/>
      <point x="404" y="181" type="line"/>
      <point x="465" y="156" type="line"/>
      <point x="478" y="168" type="line"/>
    </contour>
    <contour>
      <point x="110" y="177" type="line"/>
      <point x="419" y="177" type="line"/>
      <point x="419" y="197" type="line"/>
      <point x="110" y="197" type="line"/>
    </contour>
    <contour>
      <point x="104" y="177" type="line"/>
      <point x="119" y="188" type="line"/>
      <point x="27" y="399" type="line"/>
      <point x="20" y="377" type="line"/>
    </contour>
  </outline>
</glyph>
<glyph name="six" format="2">
  <advance width="501"/>
  <unicode hex="0036"/>
  <outline>
    <contour>
      <point x="25" y="303" type="line"/>
      <point x="211" y="550" type="line"/>
      <point x="191" y="550" type="line"/>
      <point x="10" y="312" type="line"/>
    </contour>
    <contour>
      <point x="119" y="49" type="line"/>
      <point x="132" y="64" type="line"/>
      <point x="25" y="176" type="line"/>
      <point x="10" y="163" type="line"/>
    </contour>
    <contour>
      <point x="129" y="54" type="line"/>
      <point x="179" y="91" type="line"/>
      <point x="163" y="100" type="line"/>
      <point x="113" y="62" type="line"/>
    </contour>
    <contour>
      <point x="26" y="158" type="line"/>
      <point x="117" y="152" type="line"/>
      <point x="110" y="170" type="line"/>
      <point x="21" y="175" type="line"/>
    </contour>
    <contour>
      <point x="10" y="163" type="line"/>
      <point x="30" y="163" type="line"/>
      <point x="30" y="318" type="line"/>
      <point x="10" y="312" type="line"/>
    </contour>
    <contour>
      <point x="166" y="85" type="line"/>
      <point x="178" y="101" type="line"/>
      <point x="113" y="170" type="line"/>
      <point x="99" y="156" type="line"/>
    </contour>
    <contour>
      <point x="119" y="49" type="line"/>
      <point x="375" y="49" type="line"/>
      <point x="375" y="69" type="line"/>
      <point x="119" y="69" type="line"/>
    </contour>
    <contour>
      <point x="111" y="151" type="line"/>
      <point x="207" y="213" type="line"/>
      <point x="200" y="229" type="line"/>
      <point x="106" y="169" type="line"/>
    </contour>
    <contour>
      <point x="180" y="92" type="line"/>
      <point x="237" y="194" type="line"/>
      <point x="223" y="204" type="line"/>
      <point x="165" y="103" type="line"/>
    </contour>
    <contour>
      <point x="99" y="156" type="line"/>
      <point x="119" y="156" type="line"/>
      <point x="119" y="265" type="line"/>
      <point x="99" y="265" type="line"/>
    </contour>
    <contour>
      <point x="166" y="85" type="line"/>
      <point x="331" y="85" type="line"/>
      <point x="331" y="105" type="line"/>
      <point x="166" y="105" type="line"/>
    </contour>
    <contour>
      <point x="108" y="250" type="line"/>
      <point x="113" y="269" type="line"/>
      <point x="21" y="319" type="line"/>
      <point x="17" y="301" type="line"/>
    </contour>
    <contour>
      <point x="224" y="187" type="line"/>
      <point x="237" y="202" type="line"/>
      <point x="207" y="229" type="line"/>
      <point x="194" y="215" type="line"/>
    </contour>
    <contour>
      <point x="362" y="56" type="line"/>
      <point x="381" y="64" type="line"/>
      <point x="328" y="101" type="line"/>
      <point x="310" y="93" type="line"/>
    </contour>
    <contour>
      <point x="224" y="187" type="line"/>
      <point x="264" y="187" type="line"/>
      <point x="264" y="208" type="line"/>
      <point x="224" y="208" type="line"/>
    </contour>
    <contour>
      <point x="194" y="215" type="line"/>
      <point x="214" y="215" type="line"/>
      <point x="214" y="251" type="line"/>
      <point x="194" y="251" type="line"/>
    </contour>
    <contour>
      <point x="321" y="92" type="line"/>
      <point x="336" y="102" type="line"/>
      <point x="263" y="204" type="line"/>
      <point x="249" y="194" type="line"/>
    </contour>
    <contour>
      <point x="202" y="236" type="line"/>
      <point x="211" y="253" type="line"/>
      <point x="118" y="266" type="line"/>
      <point x="108" y="250" type="line"/>
    </contour>
    <contour>
      <point x="264" y="187" type="line"/>
      <point x="293" y="215" type="line"/>
      <point x="276" y="225" type="line"/>
      <point x="249" y="200" type="line"/>
    </contour>
    <contour>
      <point x="110" y="251" type="line"/>
      <point x="193" y="305" type="line"/>
      <point x="183" y="319" type="line"/>
      <point x="99" y="265" type="line"/>
    </contour>
    <contour>
      <point x="331" y="85" type="line"/>
      <point x="385" y="144" type="line"/>
      <point x="372" y="156" type="line"/>
      <point x="318" y="98" type="line"/>
    </contour>
    <contour>
      <point x="210" y="238" type="line"/>
      <point x="235" y="265" type="line"/>
      <point x="223" y="280" type="line"/>
      <point x="194" y="251" type="line"/>
    </contour>
    <contour>
      <point x="370" y="136" type="line"/>
      <point x="378" y="154" type="line"/>
      <point x="287" y="228" type="line"/>
      <point x="279" y="211" type="line"/>
    </contour>
    <contour>
      <point x="375" y="49" type="line"/>
      <point x="491" y="144" type="line"/>
      <point x="480" y="160" type="line"/>
      <point x="363" y="65" type="line"/>
    </contour>
    <contour>
      <point x="273" y="215" type="line"/>
      <point x="293" y="215" type="line"/>
      <point x="293" y="252" type="line"/>
      <point x="273" y="252" type="line"/>
    </contour>
    <contour>
      <point x="221" y="263" type="line"/>
      <point x="235" y="273" type="line"/>
      <point x="188" y="313" type="line"/>
      <point x="172" y="304" type="line"/>
    </contour>
    <contour>
      <point x="223" y="259" type="line"/>
      <point x="263" y="259" type="line"/>
      <point x="263" y="280" type="line"/>
      <point x="223" y="280" type="line"/>
    </contour>
    <contour>
      <point x="279" y="238" type="line"/>
      <point x="293" y="252" type="line"/>
      <point x="263" y="280" type="line"/>
      <point x="250" y="264" type="line"/>
    </contour>
    <contour>
      <point x="480" y="139" type="line"/>
      <point x="484" y="157" type="line"/>
      <point x="377" y="157" type="line"/>
      <point x="372" y="138" type="line"/>
    </contour>
    <contour>
      <point x="183" y="299" type="line"/>
      <point x="304" y="299" type="line"/>
      <point x="304" y="319" type="line"/>
      <point x="183" y="319" type="line"/>
    </contour>
    <contour>
      <point x="265" y="263" type="line"/>
      <point x="311" y="302" type="line"/>
      <point x="297" y="313" type="line"/>
      <point x="249" y="274" type="line"/>
    </contour>
    <contour>
      <point x="287" y="237" type="line"/>
      <point x="375" y="253" type="line"/>
      <point x="368" y="270" type="line"/>
      <point x="278" y="253" type="line"/>
    </contour>
    <contour>
      <point x="365" y="144" type="line"/>
      <point x="385" y="144" type="line"/>
      <point x="385" y="270" type="line"/>
      <point x="365" y="270" type="line"/>
    </contour>
    <contour>
      <point x="117" y="257" type="line"/>
      <point x="269" y="478" type="line"/>
      <point x="250" y="484" type="line"/>
      <point x="100" y="264" type="line"/>
    </contour>
    <contour>
      <point x="195" y="303" type="line"/>
      <point x="282" y="400" type="line"/>
      <point x="249" y="392" type="line"/>
      <point x="183" y="319" type="line"/>
    </contour>
    <contour>
      <point x="373" y="255" type="line"/>
      <point x="385" y="270" type="line"/>
      <point x="304" y="319" type="line"/>
      <point x="292" y="304" type="line"/>
    </contour>
    <contour>
      <point x="471" y="144" type="line"/>
      <point x="491" y="144" type="line"/>
      <point x="491" y="311" type="line"/>
      <point x="471" y="311" type="line"/>
    </contour>
    <contour>
      <point x="310" y="304" type="line"/>
      <point x="372" y="384" type="line"/>
      <point x="358" y="395" type="line"/>
      <point x="294" y="313" type="line"/>
    </contour>
    <contour>
      <point x="259" y="383" type="line"/>
      <point x="367" y="383" type="line"/>
      <point x="367" y="403" type="line"/>
      <point x="259" y="403" type="line"/>
    </contour>
    <contour>
      <point x="377" y="254" type="line"/>
      <point x="478" y="295" type="line"/>
      <point x="471" y="314" type="line"/>
      <point x="371" y="273" type="line"/>
    </contour>
    <contour>
      <point x="481" y="296" type="line"/>
      <point x="491" y="311" type="line"/>
      <point x="367" y="403" type="line"/>
      <point x="355" y="388" type="line"/>
    </contour>
    <contour>
      <point x="249" y="465" type="line"/>
      <point x="263" y="476" type="line"/>
      <point x="200" y="542" type="line"/>
      <point x="186" y="529" type="line"/>
    </contour>
    <contour>
      <point x="249" y="392" type="line"/>
      <point x="272" y="392" type="line"/>
      <point x="407" y="550" type="line"/>
      <point x="382" y="550" type="line"/>
    </contour>
    <contour>
      <point x="256" y="462" type="line"/>
      <point x="387" y="529" type="line"/>
      <point x="378" y="546" type="line"/>
      <point x="250" y="479" type="line"/>
    </contour>
    <contour>
      <point x="194" y="528" type="line"/>
      <point x="386" y="528" type="line"/>
      <point x="386" y="550" type="line"/>
      <point x="194" y="550" type="line"/>
    </contour>
  </outline>
</glyph>
<glyph name="eight" format="2">
  <advance width="496"/>
  <unicode hex="0038"/>
  <outline>
    <contour>
      <point x="308" y="271" type="line"/>
      <point x="486" y="351" type="line"/>
      <point x="475" y="367" type="line"/>
      <point x="301" y="289" type="line"/>
    </contour>
    <contour>
      <point x="129" y="49" type="line"/>
      <point x="142" y="64" type="line"/>
      <point x="22" y="140" type="line"/>
      <point x="10" y="124" type="line"/>
    </contour>
    <contour>
      <point x="26" y="123" type="line"/>
      <point x="103" y="120" type="line"/>
      <point x="95" y="136" type="line"/>
      <point x="19" y="139" type="line"/>
    </contour>
    <contour>
      <point x="10" y="124" type="line"/>
      <point x="30" y="124" type="line"/>
      <point x="30" y="251" type="line"/>
      <point x="10" y="251" type="line"/>
    </contour>
    <contour>
      <point x="142" y="54" type="line"/>
      <point x="193" y="67" type="line"/>
      <point x="174" y="77" type="line"/>
      <point x="123" y="63" type="line"/>
    </contour>
    <contour>
      <point x="172" y="65" type="line"/>
      <point x="183" y="80" type="line"/>
      <point x="101" y="139" type="line"/>
      <point x="90" y="124" type="line"/>
    </contour>
    <contour>
      <point x="129" y="49" type="line"/>
      <point x="367" y="49" type="line"/>
      <point x="367" y="69" type="line"/>
      <point x="129" y="69" type="line"/>
    </contour>
    <contour>
      <point x="90" y="124" type="line"/>
      <point x="110" y="124" type="line"/>
      <point x="110" y="215" type="line"/>
      <point x="90" y="215" type="line"/>
    </contour>
    <contour>
      <point x="103" y="199" type="line"/>
      <point x="103" y="218" type="line"/>
      <point x="20" y="252" type="line"/>
      <point x="20" y="234" type="line"/>
    </contour>
    <contour>
      <point x="106" y="122" type="line"/>
      <point x="212" y="206" type="line"/>
      <point x="204" y="223" type="line"/>
      <point x="99" y="139" type="line"/>
    </contour>
    <contour>
      <point x="179" y="68" type="line"/>
      <point x="240" y="183" type="line"/>
      <point x="226" y="192" type="line"/>
      <point x="164" y="78" type="line"/>
    </contour>
    <contour>
      <point x="172" y="65" type="line"/>
      <point x="324" y="65" type="line"/>
      <point x="324" y="85" type="line"/>
      <point x="172" y="85" type="line"/>
    </contour>
    <contour>
      <point x="21" y="235" type="line"/>
      <point x="195" y="273" type="line"/>
      <point x="188" y="291" type="line"/>
      <point x="10" y="251" type="line"/>
    </contour>
    <contour>
      <point x="206" y="226" type="line"/>
      <point x="207" y="246" type="line"/>
      <point x="106" y="217" type="line"/>
      <point x="106" y="198" type="line"/>
    </contour>
    <contour>
      <point x="228" y="177" type="line"/>
      <point x="241" y="190" type="line"/>
      <point x="209" y="223" type="line"/>
      <point x="196" y="211" type="line"/>
    </contour>
    <contour>
      <point x="354" y="54" type="line"/>
      <point x="373" y="63" type="line"/>
      <point x="322" y="77" type="line"/>
      <point x="303" y="67" type="line"/>
    </contour>
    <contour>
      <point x="228" y="177" type="line"/>
      <point x="268" y="177" type="line"/>
      <point x="268" y="198" type="line"/>
      <point x="228" y="198" type="line"/>
    </contour>
    <contour>
      <point x="196" y="210" type="line"/>
      <point x="216" y="210" type="line"/>
      <point x="216" y="241" type="line"/>
      <point x="196" y="241" type="line"/>
    </contour>
    <contour>
      <point x="317" y="68" type="line"/>
      <point x="332" y="78" type="line"/>
      <point x="270" y="192" type="line"/>
      <point x="256" y="183" type="line"/>
    </contour>
    <contour>
      <point x="105" y="202" type="line"/>
      <point x="200" y="276" type="line"/>
      <point x="188" y="291" type="line"/>
      <point x="90" y="215" type="line"/>
    </contour>
    <contour>
      <point x="268" y="177" type="line"/>
      <point x="300" y="211" type="line"/>
      <point x="287" y="223" type="line"/>
      <point x="255" y="190" type="line"/>
    </contour>
    <contour>
      <point x="208" y="226" type="line"/>
      <point x="241" y="254" type="line"/>
      <point x="228" y="267" type="line"/>
      <point x="196" y="241" type="line"/>
    </contour>
    <contour>
      <point x="324" y="65" type="line"/>
      <point x="406" y="124" type="line"/>
      <point x="395" y="139" type="line"/>
      <point x="313" y="80" type="line"/>
    </contour>
    <contour>
      <point x="188" y="271" type="line"/>
      <point x="195" y="289" type="line"/>
      <point x="21" y="367" type="line"/>
      <point x="10" y="351" type="line"/>
    </contour>
    <contour>
      <point x="20" y="350" type="line"/>
      <point x="103" y="344" type="line"/>
      <point x="103" y="363" type="line"/>
      <point x="20" y="368" type="line"/>
    </contour>
    <contour>
      <point x="367" y="49" type="line"/>
      <point x="486" y="124" type="line"/>
      <point x="474" y="140" type="line"/>
      <point x="354" y="64" type="line"/>
    </contour>
    <contour>
      <point x="10" y="351" type="line"/>
      <point x="30" y="351" type="line"/>
      <point x="30" y="478" type="line"/>
      <point x="10" y="478" type="line"/>
    </contour>
    <contour>
      <point x="280" y="210" type="line"/>
      <point x="300" y="210" type="line"/>
      <point x="300" y="241" type="line"/>
      <point x="280" y="241" type="line"/>
    </contour>
    <contour>
      <point x="223" y="252" type="line"/>
      <point x="241" y="260" type="line"/>
      <point x="202" y="284" type="line"/>
      <point x="187" y="277" type="line"/>
    </contour>
    <contour>
      <point x="225" y="249" type="line"/>
      <point x="271" y="249" type="line"/>
      <point x="271" y="268" type="line"/>
      <point x="225" y="268" type="line"/>
    </contour>
    <contour>
      <point x="390" y="122" type="line"/>
      <point x="397" y="139" type="line"/>
      <point x="292" y="223" type="line"/>
      <point x="284" y="206" type="line"/>
    </contour>
    <contour>
      <point x="188" y="271" type="line"/>
      <point x="200" y="286" type="line"/>
      <point x="105" y="360" type="line"/>
      <point x="90" y="347" type="line"/>
    </contour>
    <contour>
      <point x="288" y="226" type="line"/>
      <point x="300" y="241" type="line"/>
      <point x="268" y="267" type="line"/>
      <point x="255" y="254" type="line"/>
    </contour>
    <contour>
      <point x="470" y="123" type="line"/>
      <point x="477" y="139" type="line"/>
      <point x="401" y="136" type="line"/>
      <point x="393" y="120" type="line"/>
    </contour>
    <contour>
      <point x="90" y="347" type="line"/>
      <point x="110" y="347" type="line"/>
      <point x="110" y="418" type="line"/>
      <point x="90" y="418" type="line"/>
    </contour>
    <contour>
      <point x="273" y="252" type="line"/>
      <point x="309" y="277" type="line"/>
      <point x="294" y="284" type="line"/>
      <point x="255" y="260" type="line"/>
    </contour>
    <contour>
      <point x="290" y="226" type="line"/>
      <point x="390" y="198" type="line"/>
      <point x="390" y="217" type="line"/>
      <point x="289" y="246" type="line"/>
    </contour>
    <contour>
      <point x="188" y="271" type="line"/>
      <point x="308" y="271" type="line"/>
      <point x="308" y="291" type="line"/>
      <point x="188" y="291" type="line"/>
    </contour>
    <contour>
      <point x="106" y="345" type="line"/>
      <point x="207" y="356" type="line"/>
      <point x="206" y="376" type="line"/>
      <point x="106" y="364" type="line"/>
    </contour>
    <contour>
      <point x="202" y="278" type="line"/>
      <point x="241" y="342" type="line"/>
      <point x="223" y="350" type="line"/>
      <point x="187" y="285" type="line"/>
    </contour>
    <contour>
      <point x="386" y="124" type="line"/>
      <point x="406" y="124" type="line"/>
      <point x="406" y="215" type="line"/>
      <point x="386" y="215" type="line"/>
    </contour>
    <contour>
      <point x="95" y="405" type="line"/>
      <point x="103" y="422" type="line"/>
      <point x="26" y="479" type="line"/>
      <point x="19" y="462" type="line"/>
    </contour>
    <contour>
      <point x="228" y="333" type="line"/>
      <point x="241" y="348" type="line"/>
      <point x="208" y="376" type="line"/>
      <point x="196" y="361" type="line"/>
    </contour>
    <contour>
      <point x="391" y="202" type="line"/>
      <point x="406" y="215" type="line"/>
      <point x="308" y="291" type="line"/>
      <point x="296" y="276" type="line"/>
    </contour>
    <contour>
      <point x="204" y="379" type="line"/>
      <point x="212" y="396" type="line"/>
      <point x="106" y="420" type="line"/>
      <point x="99" y="403" type="line"/>
    </contour>
    <contour>
      <point x="228" y="333" type="line"/>
      <point x="268" y="333" type="line"/>
      <point x="268" y="353" type="line"/>
      <point x="228" y="353" type="line"/>
    </contour>
    <contour>
      <point x="294" y="278" type="line"/>
      <point x="309" y="285" type="line"/>
      <point x="273" y="350" type="line"/>
      <point x="255" y="342" type="line"/>
    </contour>
    <contour>
      <point x="196" y="361" type="line"/>
      <point x="216" y="361" type="line"/>
      <point x="216" y="392" type="line"/>
      <point x="196" y="392" type="line"/>
    </contour>
    <contour>
      <point x="466" y="124" type="line"/>
      <point x="486" y="124" type="line"/>
      <point x="486" y="251" type="line"/>
      <point x="466" y="251" type="line"/>
    </contour>
    <contour>
      <point x="22" y="462" type="line"/>
      <point x="142" y="535" type="line"/>
      <point x="129" y="550" type="line"/>
      <point x="10" y="478" type="line"/>
    </contour>
    <contour>
      <point x="393" y="199" type="line"/>
      <point x="476" y="234" type="line"/>
      <point x="476" y="252" type="line"/>
      <point x="393" y="218" type="line"/>
    </contour>
    <contour>
      <point x="475" y="235" type="line"/>
      <point x="486" y="251" type="line"/>
      <point x="308" y="291" type="line"/>
      <point x="301" y="273" type="line"/>
    </contour>
    <contour>
      <point x="101" y="403" type="line"/>
      <point x="183" y="452" type="line"/>
      <point x="172" y="467" type="line"/>
      <point x="90" y="418" type="line"/>
    </contour>
    <contour>
      <point x="268" y="333" type="line"/>
      <point x="300" y="361" type="line"/>
      <point x="288" y="376" type="line"/>
      <point x="255" y="348" type="line"/>
    </contour>
    <contour>
      <point x="209" y="379" type="line"/>
      <point x="241" y="412" type="line"/>
      <point x="228" y="425" type="line"/>
      <point x="196" y="391" type="line"/>
    </contour>
    <contour>
      <point x="308" y="271" type="line"/>
      <point x="406" y="347" type="line"/>
      <point x="391" y="360" type="line"/>
      <point x="296" y="286" type="line"/>
    </contour>
    <contour>
      <point x="226" y="410" type="line"/>
      <point x="240" y="419" type="line"/>
      <point x="179" y="464" type="line"/>
      <point x="164" y="454" type="line"/>
    </contour>
    <contour>
      <point x="280" y="361" type="line"/>
      <point x="300" y="361" type="line"/>
      <point x="300" y="392" type="line"/>
      <point x="280" y="392" type="line"/>
    </contour>
    <contour>
      <point x="228" y="404" type="line"/>
      <point x="268" y="404" type="line"/>
      <point x="268" y="425" type="line"/>
      <point x="228" y="425" type="line"/>
    </contour>
    <contour>
      <point x="168" y="450" type="line"/>
      <point x="184" y="460" type="line"/>
      <point x="139" y="545" type="line"/>
      <point x="123" y="536" type="line"/>
    </contour>
    <contour>
      <point x="287" y="379" type="line"/>
      <point x="300" y="391" type="line"/>
      <point x="268" y="425" type="line"/>
      <point x="255" y="412" type="line"/>
    </contour>
    <contour>
      <point x="390" y="345" type="line"/>
      <point x="390" y="364" type="line"/>
      <point x="290" y="376" type="line"/>
      <point x="289" y="356" type="line"/>
    </contour>
    <contour>
      <point x="172" y="447" type="line"/>
      <point x="324" y="447" type="line"/>
      <point x="324" y="467" type="line"/>
      <point x="172" y="467" type="line"/>
    </contour>
    <contour>
      <point x="270" y="410" type="line"/>
      <point x="332" y="454" type="line"/>
      <point x="317" y="464" type="line"/>
      <point x="256" y="419" type="line"/>
    </contour>
    <contour>
      <point x="292" y="379" type="line"/>
      <point x="397" y="403" type="line"/>
      <point x="390" y="420" type="line"/>
      <point x="284" y="396" type="line"/>
    </contour>
    <contour>
      <point x="476" y="350" type="line"/>
      <point x="476" y="368" type="line"/>
      <point x="393" y="363" type="line"/>
      <point x="393" y="344" type="line"/>
    </contour>
    <contour>
      <point x="386" y="347" type="line"/>
      <point x="406" y="347" type="line"/>
      <point x="406" y="418" type="line"/>
      <point x="386" y="418" type="line"/>
    </contour>
    <contour>
      <point x="129" y="530" type="line"/>
      <point x="367" y="530" type="line"/>
      <point x="367" y="550" type="line"/>
      <point x="129" y="550" type="line"/>
    </contour>
    <contour>
      <point x="395" y="403" type="line"/>
      <point x="406" y="418" type="line"/>
      <point x="324" y="467" type="line"/>
      <point x="313" y="452" type="line"/>
    </contour>
    <contour>
      <point x="328" y="450" type="line"/>
      <point x="373" y="536" type="line"/>
      <point x="357" y="545" type="line"/>
      <point x="312" y="460" type="line"/>
    </contour>
    <contour>
      <point x="466" y="351" type="line"/>
      <point x="486" y="351" type="line"/>
      <point x="486" y="478" type="line"/>
      <point x="466" y="478" type="line"/>
    </contour>
    <contour>
      <point x="401" y="406" type="line"/>
      <point x="477" y="463" type="line"/>
      <point x="470" y="479" type="line"/>
      <point x="393" y="422" type="line"/>
    </contour>
    <contour>
      <point x="474" y="462" type="line"/>
      <point x="486" y="478" type="line"/>
      <point x="367" y="550" type="line"/>
      <point x="354" y="535" type="line"/>
    </contour>
  </outline>
</glyph>
<glyph name="nine" format="2">
  <advance width="501"/>
  <unicode hex="0039"/>
  <outline>
    <contour>
      <point x="476" y="307" type="line"/>
      <point x="290" y="50" type="line"/>
      <point x="310" y="50" type="line"/>
      <point x="491" y="298" type="line"/>
    </contour>
    <contour>
      <point x="382" y="550" type="line"/>
      <point x="369" y="535" type="line"/>
      <point x="476" y="414" type="line"/>
      <point x="491" y="427" type="line"/>
    </contour>
    <contour>
      <point x="372" y="545" type="line"/>
      <point x="322" y="429" type="line"/>
      <point x="338" y="420" type="line"/>
      <point x="388" y="537" type="line"/>
    </contour>
    <contour>
      <point x="475" y="432" type="line"/>
      <point x="384" y="368" type="line"/>
      <point x="391" y="350" type="line"/>
      <point x="480" y="415" type="line"/>
    </contour>
    <contour>
      <point x="491" y="427" type="line"/>
      <point x="471" y="427" type="line"/>
      <point x="471" y="292" type="line"/>
      <point x="491" y="298" type="line"/>
    </contour>
    <contour>
      <point x="335" y="435" type="line"/>
      <point x="323" y="419" type="line"/>
      <point x="388" y="350" type="line"/>
      <point x="402" y="364" type="line"/>
    </contour>
    <contour>
      <point x="382" y="550" type="line"/>
      <point x="126" y="550" type="line"/>
      <point x="126" y="530" type="line"/>
      <point x="382" y="530" type="line"/>
    </contour>
    <contour>
      <point x="390" y="369" type="line"/>
      <point x="294" y="377" type="line"/>
      <point x="301" y="361" type="line"/>
      <point x="395" y="351" type="line"/>
    </contour>
    <contour>
      <point x="319" y="428" type="line"/>
      <point x="260" y="398" type="line"/>
      <point x="276" y="388" type="line"/>
      <point x="336" y="417" type="line"/>
    </contour>
    <contour>
      <point x="402" y="364" type="line"/>
      <point x="382" y="364" type="line"/>
      <point x="382" y="285" type="line"/>
      <point x="402" y="285" type="line"/>
    </contour>
    <contour>
      <point x="335" y="435" type="line"/>
      <point x="170" y="435" type="line"/>
      <point x="170" y="415" type="line"/>
      <point x="335" y="415" type="line"/>
    </contour>
    <contour>
      <point x="393" y="300" type="line"/>
      <point x="388" y="281" type="line"/>
      <point x="480" y="291" type="line"/>
      <point x="484" y="309" type="line"/>
    </contour>
    <contour>
      <point x="277" y="403" type="line"/>
      <point x="264" y="388" type="line"/>
      <point x="294" y="361" type="line"/>
      <point x="307" y="375" type="line"/>
    </contour>
    <contour>
      <point x="136" y="543" type="line"/>
      <point x="120" y="535" type="line"/>
      <point x="169" y="419" type="line"/>
      <point x="184" y="427" type="line"/>
    </contour>
    <contour>
      <point x="277" y="403" type="line"/>
      <point x="237" y="403" type="line"/>
      <point x="237" y="382" type="line"/>
      <point x="277" y="382" type="line"/>
    </contour>
    <contour>
      <point x="307" y="375" type="line"/>
      <point x="287" y="375" type="line"/>
      <point x="287" y="339" type="line"/>
      <point x="307" y="339" type="line"/>
    </contour>
    <contour>
      <point x="182" y="428" type="line"/>
      <point x="165" y="418" type="line"/>
      <point x="240" y="388" type="line"/>
      <point x="256" y="398" type="line"/>
    </contour>
    <contour>
      <point x="299" y="354" type="line"/>
      <point x="290" y="337" type="line"/>
      <point x="383" y="284" type="line"/>
      <point x="393" y="300" type="line"/>
    </contour>
    <contour>
      <point x="237" y="403" type="line"/>
      <point x="208" y="375" type="line"/>
      <point x="225" y="365" type="line"/>
      <point x="252" y="390" type="line"/>
    </contour>
    <contour>
      <point x="391" y="299" type="line"/>
      <point x="308" y="225" type="line"/>
      <point x="318" y="211" type="line"/>
      <point x="402" y="285" type="line"/>
    </contour>
    <contour>
      <point x="170" y="435" type="line"/>
      <point x="116" y="386" type="line"/>
      <point x="129" y="374" type="line"/>
      <point x="183" y="422" type="line"/>
    </contour>
    <contour>
      <point x="291" y="352" type="line"/>
      <point x="266" y="325" type="line"/>
      <point x="278" y="310" type="line"/>
      <point x="307" y="339" type="line"/>
    </contour>
    <contour>
      <point x="131" y="394" type="line"/>
      <point x="123" y="376" type="line"/>
      <point x="214" y="362" type="line"/>
      <point x="222" y="379" type="line"/>
    </contour>
    <contour>
      <point x="126" y="550" type="line"/>
      <point x="10" y="436" type="line"/>
      <point x="21" y="420" type="line"/>
      <point x="138" y="534" type="line"/>
    </contour>
    <contour>
      <point x="228" y="375" type="line"/>
      <point x="208" y="375" type="line"/>
      <point x="208" y="338" type="line"/>
      <point x="228" y="338" type="line"/>
    </contour>
    <contour>
      <point x="280" y="327" type="line"/>
      <point x="266" y="317" type="line"/>
      <point x="313" y="217" type="line"/>
      <point x="329" y="226" type="line"/>
    </contour>
    <contour>
      <point x="278" y="331" type="line"/>
      <point x="238" y="331" type="line"/>
      <point x="238" y="310" type="line"/>
      <point x="278" y="310" type="line"/>
    </contour>
    <contour>
      <point x="222" y="352" type="line"/>
      <point x="208" y="338" type="line"/>
      <point x="238" y="310" type="line"/>
      <point x="251" y="326" type="line"/>
    </contour>
    <contour>
      <point x="21" y="441" type="line"/>
      <point x="17" y="423" type="line"/>
      <point x="124" y="373" type="line"/>
      <point x="129" y="392" type="line"/>
    </contour>
    <contour>
      <point x="318" y="231" type="line"/>
      <point x="187" y="231" type="line"/>
      <point x="187" y="211" type="line"/>
      <point x="318" y="211" type="line"/>
    </contour>
    <contour>
      <point x="236" y="327" type="line"/>
      <point x="190" y="228" type="line"/>
      <point x="204" y="217" type="line"/>
      <point x="252" y="316" type="line"/>
    </contour>
    <contour>
      <point x="214" y="353" type="line"/>
      <point x="126" y="297" type="line"/>
      <point x="133" y="280" type="line"/>
      <point x="223" y="337" type="line"/>
    </contour>
    <contour>
      <point x="136" y="386" type="line"/>
      <point x="116" y="386" type="line"/>
      <point x="116" y="280" type="line"/>
      <point x="136" y="280" type="line"/>
    </contour>
    <contour>
      <point x="384" y="293" type="line"/>
      <point x="235" y="97" type="line"/>
      <point x="254" y="91" type="line"/>
      <point x="401" y="286" type="line"/>
    </contour>
    <contour>
      <point x="306" y="227" type="line"/>
      <point x="232" y="205" type="line"/>
      <point x="256" y="198" type="line"/>
      <point x="318" y="211" type="line"/>
    </contour>
    <contour>
      <point x="128" y="295" type="line"/>
      <point x="116" y="280" type="line"/>
      <point x="197" y="211" type="line"/>
      <point x="209" y="226" type="line"/>
    </contour>
    <contour>
      <point x="30" y="436" type="line"/>
      <point x="10" y="436" type="line"/>
      <point x="10" y="299" type="line"/>
      <point x="30" y="299" type="line"/>
    </contour>
    <contour>
      <point x="191" y="230" type="line"/>
      <point x="129" y="206" type="line"/>
      <point x="143" y="193" type="line"/>
      <point x="207" y="215" type="line"/>
    </contour>
    <contour>
      <point x="257" y="207" type="line"/>
      <point x="134" y="207" type="line"/>
      <point x="134" y="187" type="line"/>
      <point x="242" y="187" type="line"/>
    </contour>
    <contour>
      <point x="124" y="296" type="line"/>
      <point x="23" y="315" type="line"/>
      <point x="30" y="296" type="line"/>
      <point x="130" y="277" type="line"/>
    </contour>
    <contour>
      <point x="20" y="314" type="line"/>
      <point x="10" y="299" type="line"/>
      <point x="134" y="187" type="line"/>
      <point x="146" y="202" type="line"/>
    </contour>
    <contour>
      <point x="252" y="105" type="line"/>
      <point x="238" y="94" type="line"/>
      <point x="301" y="58" type="line"/>
      <point x="315" y="71" type="line"/>
    </contour>
    <contour>
      <point x="256" y="198" type="line"/>
      <point x="238" y="206" type="line"/>
      <point x="94" y="50" type="line"/>
      <point x="119" y="50" type="line"/>
    </contour>
    <contour>
      <point x="245" y="108" type="line"/>
      <point x="114" y="71" type="line"/>
      <point x="123" y="54" type="line"/>
      <point x="251" y="91" type="line"/>
    </contour>
    <contour>
      <point x="307" y="72" type="line"/>
      <point x="115" y="72" type="line"/>
      <point x="115" y="50" type="line"/>
      <point x="307" y="50" type="line"/>
    </contour>
  </outline>
</glyph>
<glyph name="question" format="2">
  <advance width="401"/>
  <unicode hex="003F"/>
  <outline>
    <contour>
      <point x="200" y="260" type="line"/>
      <point x="315" y="327" type="line"/>
      <point x="305" y="343" type="line"/>
      <point x="190" y="275" type="line"/>
    </contour>
    <contour>
      <point x="243" y="269" type="line"/>
      <point x="396" y="333" type="line"/>
      <point x="384" y="349" type="line"/>
      <point x="239" y="288" type="line"/>
    </contour>
    <contour>
      <point x="241" y="240" type="line"/>
      <point x="265" y="291" type="line"/>
      <point x="244" y="286" type="line"/>
      <point x="221" y="240" type="line"/>
    </contour>
    <contour>
      <point x="396" y="333" type="line"/>
      <point x="396" y="485" type="line"/>
      <point x="376" y="485" type="line"/>
      <point x="376" y="333" type="line"/>
    </contour>
    <contour>
      <point x="169" y="240" type="line"/>
      <point x="210" y="240" type="line"/>
      <point x="210" y="259" type="line"/>
      <point x="169" y="259" type="line"/>
    </contour>
    <contour>
      <point x="209" y="247" type="line"/>
      <point x="209" y="275" type="line"/>
      <point x="189" y="275" type="line"/>
      <point x="189" y="247" type="line"/>
    </contour>
    <contour>
      <point x="320" y="326" type="line"/>
      <point x="320" y="395" type="line"/>
      <point x="300" y="395" type="line"/>
      <point x="300" y="326" type="line"/>
    </contour>
    <contour>
      <point x="302" y="322" type="line"/>
      <point x="308" y="340" type="line"/>
      <point x="213" y="378" type="line"/>
      <point x="207" y="362" type="line"/>
    </contour>
    <contour>
      <point x="216" y="379" type="line"/>
      <point x="310" y="383" type="line"/>
      <point x="306" y="400" type="line"/>
      <point x="213" y="396" type="line"/>
    </contour>
    <contour>
      <point x="385" y="469" type="line"/>
      <point x="396" y="485" type="line"/>
      <point x="280" y="550" type="line"/>
      <point x="268" y="534" type="line"/>
    </contour>
    <contour>
      <point x="197" y="263" type="line"/>
      <point x="209" y="279" type="line"/>
      <point x="153" y="328" type="line"/>
      <point x="143" y="311" type="line"/>
    </contour>
    <contour>
      <point x="174" y="240" type="line"/>
      <point x="155" y="324" type="line"/>
      <point x="135" y="325" type="line"/>
      <point x="154" y="240" type="line"/>
    </contour>
    <contour>
      <point x="228" y="366" type="line"/>
      <point x="228" y="394" type="line"/>
      <point x="208" y="394" type="line"/>
      <point x="208" y="366" type="line"/>
    </contour>
    <contour>
      <point x="306" y="384" type="line"/>
      <point x="318" y="399" type="line"/>
      <point x="250" y="444" type="line"/>
      <point x="238" y="429" type="line"/>
    </contour>
    <contour>
      <point x="145" y="309" type="line"/>
      <point x="228" y="365" type="line"/>
      <point x="218" y="379" type="line"/>
      <point x="135" y="325" type="line"/>
    </contour>
    <contour>
      <point x="215" y="382" type="line"/>
      <point x="229" y="395" type="line"/>
      <point x="209" y="415" type="line"/>
      <point x="191" y="407" type="line"/>
    </contour>
    <contour>
      <point x="209" y="396" type="line"/>
      <point x="209" y="417" type="line"/>
      <point x="167" y="417" type="line"/>
      <point x="167" y="396" type="line"/>
    </contour>
    <contour>
      <point x="159" y="371" type="line"/>
      <point x="159" y="394" type="line"/>
      <point x="139" y="394" type="line"/>
      <point x="139" y="371" type="line"/>
    </contour>
    <contour>
      <point x="148" y="379" type="line"/>
      <point x="179" y="402" type="line"/>
      <point x="165" y="417" type="line"/>
      <point x="137" y="394" type="line"/>
    </contour>
    <contour>
      <point x="183" y="405" type="line"/>
      <point x="158" y="434" type="line"/>
      <point x="135" y="431" type="line"/>
      <point x="164" y="398" type="line"/>
    </contour>
    <contour>
      <point x="253" y="424" type="line"/>
      <point x="250" y="444" type="line"/>
      <point x="145" y="444" type="line"/>
      <point x="145" y="424" type="line"/>
    </contour>
    <contour>
      <point x="159" y="356" type="line"/>
      <point x="159" y="376" type="line"/>
      <point x="5" y="376" type="line"/>
      <point x="5" y="356" type="line"/>
    </contour>
    <contour>
      <point x="76" y="384" type="line"/>
      <point x="151" y="425" type="line"/>
      <point x="143" y="443" type="line"/>
      <point x="65" y="399" type="line"/>
    </contour>
    <contour>
      <point x="280" y="530" type="line"/>
      <point x="280" y="550" type="line"/>
      <point x="114" y="550" type="line"/>
      <point x="117" y="530" type="line"/>
    </contour>
    <contour>
      <point x="75" y="399" type="line"/>
      <point x="21" y="471" type="line"/>
      <point x="14" y="455" type="line"/>
      <point x="67" y="383" type="line"/>
    </contour>
    <contour>
      <point x="139" y="429" type="line"/>
      <point x="158" y="435" type="line"/>
      <point x="126" y="545" type="line"/>
      <point x="108" y="539" type="line"/>
    </contour>
    <contour>
      <point x="25" y="376" type="line"/>
      <point x="25" y="463" type="line"/>
      <point x="5" y="466" type="line"/>
      <point x="5" y="376" type="line"/>
    </contour>
    <contour>
      <point x="15" y="448" type="line"/>
      <point x="127" y="535" type="line"/>
      <point x="114" y="550" type="line"/>
      <point x="5" y="466" type="line"/>
    </contour>
    <contour>
      <point x="67" y="383" type="line"/>
      <point x="148" y="379" type="line"/>
      <point x="152" y="396" type="line"/>
      <point x="75" y="399" type="line"/>
    </contour>
    <contour>
      <point x="314" y="379" type="line"/>
      <point x="390" y="474" type="line"/>
      <point x="378" y="486" type="line"/>
      <point x="304" y="395" type="line"/>
    </contour>
    <contour>
      <point x="383" y="331" type="line"/>
      <point x="389" y="348" type="line"/>
      <point x="309" y="341" type="line"/>
      <point x="303" y="323" type="line"/>
    </contour>
    <contour>
      <point x="253" y="278" type="line"/>
      <point x="259" y="297" type="line"/>
      <point x="210" y="277" type="line"/>
      <point x="204" y="259" type="line"/>
    </contour>
    <contour>
      <point x="198" y="240" type="line"/>
      <point x="237" y="240" type="line"/>
      <point x="237" y="259" type="line"/>
      <point x="198" y="259" type="line"/>
    </contour>
    <contour>
      <point x="115" y="50" type="line"/>
      <point x="280" y="50" type="line"/>
      <point x="280" y="68" type="line"/>
      <point x="115" y="68" type="line"/>
    </contour>
    <contour>
      <point x="129" y="50" type="line"/>
      <point x="200" y="79" type="line"/>
      <point x="191" y="99" type="line"/>
      <point x="115" y="64" type="line"/>
    </contour>
    <contour>
      <point x="266" y="50" type="line"/>
      <point x="280" y="64" type="line"/>
      <point x="203" y="100" type="line"/>
      <point x="194" y="80" type="line"/>
    </contour>
    <contour>
      <point x="115" y="50" type="line"/>
      <point x="135" y="50" type="line"/>
      <point x="135" y="225" type="line"/>
      <point x="115" y="225" type="line"/>
    </contour>
    <contour>
      <point x="191" y="84" type="line"/>
      <point x="204" y="84" type="line"/>
      <point x="204" y="101" type="line"/>
      <point x="191" y="101" type="line"/>
    </contour>
    <contour>
      <point x="260" y="50" type="line"/>
      <point x="280" y="50" type="line"/>
      <point x="280" y="225" type="line"/>
      <point x="260" y="225" type="line"/>
    </contour>
    <contour>
      <point x="192" y="86" type="line"/>
      <point x="201" y="106" type="line"/>
      <point x="129" y="225" type="line"/>
      <point x="115" y="211" type="line"/>
    </contour>
    <contour>
      <point x="118" y="207" type="line"/>
      <point x="280" y="207" type="line"/>
      <point x="280" y="225" type="line"/>
      <point x="118" y="225" type="line"/>
    </contour>
    <contour>
      <point x="203" y="86" type="line"/>
      <point x="279" y="211" type="line"/>
      <point x="265" y="225" type="line"/>
      <point x="194" y="106" type="line"/>
    </contour>
    <contour>
      <point x="210" y="399" type="line"/>
      <point x="257" y="433" type="line"/>
      <point x="239" y="439" type="line"/>
      <point x="191" y="407" type="line"/>
    </contour>
    <contour>
      <point x="254" y="426" type="line"/>
      <point x="293" y="535" type="line"/>
      <point x="275" y="541" type="line"/>
      <point x="235" y="432" type="line"/>
    </contour>
  </outline>
</glyph>
<glyph name="at" format="2">
  <advance width="447"/>
  <unicode hex="0040"/>
  <outline>
    <contour>
      <point x="152" y="85" type="line"/>
      <point x="27" y="232" type="line"/>
      <point x="15" y="223" type="line"/>
      <point x="140" y="76" type="line"/>
    </contour>
    <contour>
      <point x="341" y="91" type="line"/>
      <point x="140" y="91" type="line"/>
      <point x="140" y="76" type="line"/>
      <point x="341" y="76" type="line"/>
    </contour>
    <contour>
      <point x="301" y="99" type="line"/>
      <point x="158" y="99" type="line"/>
      <point x="158" y="84" type="line"/>
      <point x="301" y="84" type="line"/>
    </contour>
    <contour>
      <point x="341" y="147" type="line"/>
      <point x="178" y="147" type="line"/>
      <point x="178" y="132" type="line"/>
      <point x="341" y="132" type="line"/>
    </contour>
    <contour>
      <point x="170" y="93" type="line"/>
      <point x="57" y="226" type="line"/>
      <point x="45" y="217" type="line"/>
      <point x="158" y="84" type="line"/>
    </contour>
    <contour>
      <point x="190" y="141" type="line"/>
      <point x="87" y="262" type="line"/>
      <point x="75" y="253" type="line"/>
      <point x="178" y="132" type="line"/>
    </contour>
    <contour>
      <point x="341" y="147" type="line"/>
      <point x="326" y="147" type="line"/>
      <point x="326" y="76" type="line"/>
      <point x="341" y="76" type="line"/>
    </contour>
    <contour>
      <point x="299" y="84" type="line"/>
      <point x="340" y="136" type="line"/>
      <point x="331" y="147" type="line"/>
      <point x="289" y="94" type="line"/>
    </contour>
    <contour>
      <point x="299" y="99" type="line"/>
      <point x="289" y="89" type="line"/>
      <point x="331" y="76" type="line"/>
      <point x="340" y="87" type="line"/>
    </contour>
    <contour>
      <point x="152" y="531" type="line"/>
      <point x="140" y="540" type="line"/>
      <point x="15" y="393" type="line"/>
      <point x="27" y="384" type="line"/>
    </contour>
    <contour>
      <point x="60" y="217" type="line"/>
      <point x="60" y="359" type="line"/>
      <point x="45" y="359" type="line"/>
      <point x="45" y="217" type="line"/>
    </contour>
    <contour>
      <point x="30" y="223" type="line"/>
      <point x="30" y="393" type="line"/>
      <point x="15" y="393" type="line"/>
      <point x="15" y="223" type="line"/>
    </contour>
    <contour>
      <point x="170" y="483" type="line"/>
      <point x="158" y="492" type="line"/>
      <point x="45" y="359" type="line"/>
      <point x="57" y="350" type="line"/>
    </contour>
    <contour>
      <point x="90" y="263" type="line"/>
      <point x="90" y="363" type="line"/>
      <point x="75" y="363" type="line"/>
      <point x="75" y="253" type="line"/>
    </contour>
    <contour>
      <point x="190" y="475" type="line"/>
      <point x="178" y="484" type="line"/>
      <point x="75" y="363" type="line"/>
      <point x="87" y="354" type="line"/>
    </contour>
    <contour>
      <point x="295" y="531" type="line"/>
      <point x="420" y="384" type="line"/>
      <point x="432" y="393" type="line"/>
      <point x="307" y="540" type="line"/>
    </contour>
    <contour>
      <point x="387" y="257" type="line"/>
      <point x="402" y="257" type="line"/>
      <point x="402" y="359" type="line"/>
      <point x="387" y="359" type="line"/>
    </contour>
    <contour>
      <point x="140" y="525" type="line"/>
      <point x="307" y="525" type="line"/>
      <point x="307" y="540" type="line"/>
      <point x="140" y="540" type="line"/>
    </contour>
    <contour>
      <point x="158" y="477" type="line"/>
      <point x="289" y="477" type="line"/>
      <point x="289" y="492" type="line"/>
      <point x="158" y="492" type="line"/>
    </contour>
    <contour>
      <point x="178" y="469" type="line"/>
      <point x="269" y="469" type="line"/>
      <point x="269" y="484" type="line"/>
      <point x="178" y="484" type="line"/>
    </contour>
    <contour>
      <point x="417" y="253" type="line"/>
      <point x="432" y="253" type="line"/>
      <point x="432" y="393" type="line"/>
      <point x="417" y="393" type="line"/>
    </contour>
    <contour>
      <point x="277" y="483" type="line"/>
      <point x="390" y="350" type="line"/>
      <point x="402" y="359" type="line"/>
      <point x="289" y="492" type="line"/>
    </contour>
    <contour>
      <point x="357" y="289" type="line"/>
      <point x="372" y="289" type="line"/>
      <point x="372" y="363" type="line"/>
      <point x="357" y="363" type="line"/>
    </contour>
    <contour>
      <point x="257" y="475" type="line"/>
      <point x="360" y="354" type="line"/>
      <point x="372" y="363" type="line"/>
      <point x="269" y="484" type="line"/>
    </contour>
    <contour>
      <point x="195" y="355" type="line"/>
      <point x="182" y="363" type="line"/>
      <point x="148" y="333" type="line"/>
      <point x="160" y="324" type="line"/>
    </contour>
    <contour>
      <point x="179" y="428" type="line"/>
      <point x="167" y="437" type="line"/>
      <point x="108" y="371" type="line"/>
      <point x="120" y="362" type="line"/>
    </contour>
    <contour>
      <point x="226" y="337" type="line"/>
      <point x="226" y="352" type="line"/>
      <point x="209" y="352" type="line"/>
      <point x="209" y="337" type="line"/>
    </contour>
    <contour>
      <point x="221" y="343" type="line"/>
      <point x="209" y="352" type="line"/>
      <point x="190" y="329" type="line"/>
      <point x="202" y="320" type="line"/>
    </contour>
    <contour>
      <point x="325" y="372" type="line"/>
      <point x="325" y="289" type="line"/>
      <point x="340" y="289" type="line"/>
      <point x="340" y="372" type="line"/>
    </contour>
    <contour>
      <point x="285" y="333" type="line"/>
      <point x="285" y="257" type="line"/>
      <point x="300" y="259" type="line"/>
      <point x="300" y="333" type="line"/>
    </contour>
    <contour>
      <point x="167" y="422" type="line"/>
      <point x="285" y="422" type="line"/>
      <point x="285" y="437" type="line"/>
      <point x="167" y="437" type="line"/>
    </contour>
    <contour>
      <point x="182" y="348" type="line"/>
      <point x="260" y="348" type="line"/>
      <point x="260" y="363" type="line"/>
      <point x="182" y="363" type="line"/>
    </contour>
    <contour>
      <point x="248" y="354" type="line"/>
      <point x="288" y="324" type="line"/>
      <point x="300" y="333" type="line"/>
      <point x="260" y="363" type="line"/>
    </contour>
    <contour>
      <point x="273" y="428" type="line"/>
      <point x="328" y="363" type="line"/>
      <point x="340" y="372" type="line"/>
      <point x="285" y="437" type="line"/>
    </contour>
    <contour>
      <point x="243" y="329" type="line"/>
      <point x="243" y="292" type="line"/>
      <point x="258" y="292" type="line"/>
      <point x="258" y="329" type="line"/>
    </contour>
    <contour>
      <point x="222" y="337" type="line"/>
      <point x="239" y="337" type="line"/>
      <point x="239" y="352" type="line"/>
      <point x="222" y="352" type="line"/>
    </contour>
    <contour>
      <point x="227" y="343" type="line"/>
      <point x="246" y="320" type="line"/>
      <point x="258" y="329" type="line"/>
      <point x="239" y="352" type="line"/>
    </contour>
    <contour>
      <point x="108" y="317" type="line"/>
      <point x="108" y="257" type="line"/>
      <point x="123" y="257" type="line"/>
      <point x="123" y="317" type="line"/>
      <point x="123" y="371" type="line"/>
      <point x="108" y="371" type="line"/>
    </contour>
    <contour>
      <point x="148" y="297" type="line"/>
      <point x="148" y="254" type="line"/>
      <point x="163" y="254" type="line"/>
      <point x="163" y="297" type="line"/>
      <point x="163" y="333" type="line"/>
      <point x="148" y="333" type="line"/>
    </contour>
    <contour>
      <point x="241" y="202" type="line"/>
      <point x="167" y="202" type="line"/>
      <point x="167" y="187" type="line"/>
      <point x="242" y="187" type="line"/>
    </contour>
    <contour>
      <point x="252" y="227" type="line"/>
      <point x="179" y="227" type="line"/>
      <point x="179" y="212" type="line"/>
      <point x="252" y="212" type="line"/>
    </contour>
    <contour>
      <point x="191" y="221" type="line"/>
      <point x="160" y="263" type="line"/>
      <point x="148" y="254" type="line"/>
      <point x="179" y="212" type="line"/>
    </contour>
    <contour>
      <point x="179" y="196" type="line"/>
      <point x="120" y="266" type="line"/>
      <point x="108" y="257" type="line"/>
      <point x="167" y="187" type="line"/>
    </contour>
    <contour>
      <point x="190" y="322" type="line"/>
      <point x="190" y="300" type="line"/>
      <point x="205" y="300" type="line"/>
      <point x="205" y="322" type="line"/>
      <point x="205" y="329" type="line"/>
      <point x="190" y="329" type="line"/>
    </contour>
    <contour>
      <point x="256" y="302" type="line"/>
      <point x="209" y="302" type="line"/>
      <point x="209" y="287" type="line"/>
      <point x="256" y="287" type="line"/>
    </contour>
    <contour>
      <point x="221" y="296" type="line"/>
      <point x="202" y="309" type="line"/>
      <point x="190" y="300" type="line"/>
      <point x="209" y="287" type="line"/>
    </contour>
    <contour>
      <point x="372" y="297" type="line"/>
      <point x="325" y="297" type="line"/>
      <point x="325" y="282" type="line"/>
      <point x="372" y="282" type="line"/>
    </contour>
    <contour>
      <point x="243" y="295" type="line"/>
      <point x="243" y="217" type="line"/>
      <point x="258" y="217" type="line"/>
      <point x="258" y="295" type="line"/>
    </contour>
    <contour>
      <point x="169" y="88" type="line"/>
      <point x="157" y="97" type="line"/>
      <point x="135" y="86" type="line"/>
      <point x="147" y="77" type="line"/>
    </contour>
    <contour>
      <point x="189" y="138" type="line"/>
      <point x="177" y="147" type="line"/>
      <point x="155" y="96" type="line"/>
      <point x="167" y="87" type="line"/>
    </contour>
    <contour>
      <point x="172" y="486" type="line"/>
      <point x="150" y="537" type="line"/>
      <point x="138" y="528" type="line"/>
      <point x="160" y="477" type="line"/>
    </contour>
    <contour>
      <point x="192" y="476" type="line"/>
      <point x="170" y="487" type="line"/>
      <point x="158" y="478" type="line"/>
      <point x="180" y="467" type="line"/>
    </contour>
    <contour>
      <point x="274" y="486" type="line"/>
      <point x="286" y="477" type="line"/>
      <point x="308" y="528" type="line"/>
      <point x="296" y="537" type="line"/>
    </contour>
    <contour>
      <point x="254" y="476" type="line"/>
      <point x="266" y="467" type="line"/>
      <point x="288" y="478" type="line"/>
      <point x="276" y="487" type="line"/>
    </contour>
    <contour>
      <point x="196" y="219" type="line"/>
      <point x="181" y="224" type="line"/>
      <point x="164" y="197" type="line"/>
      <point x="179" y="192" type="line"/>
    </contour>
    <contour>
      <point x="220" y="295" type="line"/>
      <point x="205" y="300" type="line"/>
      <point x="181" y="222" type="line"/>
      <point x="196" y="217" type="line"/>
    </contour>
    <contour>
      <point x="197" y="357" type="line"/>
      <point x="179" y="432" type="line"/>
      <point x="164" y="427" type="line"/>
      <point x="182" y="352" type="line"/>
    </contour>
    <contour>
      <point x="217" y="343" type="line"/>
      <point x="197" y="359" type="line"/>
      <point x="182" y="354" type="line"/>
      <point x="202" y="338" type="line"/>
    </contour>
    <contour>
      <point x="247" y="356" type="line"/>
      <point x="261" y="351" type="line"/>
      <point x="285" y="427" type="line"/>
      <point x="270" y="432" type="line"/>
    </contour>
    <contour>
      <point x="224" y="340" type="line"/>
      <point x="239" y="335" type="line"/>
      <point x="261" y="353" type="line"/>
      <point x="247" y="358" type="line"/>
    </contour>
    <contour>
      <point x="258" y="217" type="line"/>
      <point x="243" y="222" type="line"/>
      <point x="226" y="192" type="line"/>
      <point x="242" y="187" type="line"/>
    </contour>
    <contour>
      <point x="294" y="202" type="line"/>
      <point x="294" y="187" type="line"/>
      <point x="391" y="187" type="line"/>
      <point x="391" y="202" type="line"/>
    </contour>
    <contour>
      <point x="240" y="217" type="line"/>
      <point x="294" y="187" type="line"/>
      <point x="309" y="193" type="line"/>
      <point x="255" y="223" type="line"/>
    </contour>
    <contour>
      <point x="432" y="253" type="line"/>
      <point x="417" y="258" type="line"/>
      <point x="376" y="192" type="line"/>
      <point x="391" y="187" type="line"/>
    </contour>
    <contour>
      <point x="203" y="300" type="line"/>
      <point x="193" y="313" type="line"/>
      <point x="151" y="267" type="line"/>
      <point x="161" y="254" type="line"/>
    </contour>
    <contour>
      <point x="159" y="253" type="line"/>
      <point x="149" y="266" type="line"/>
      <point x="108" y="266" type="line"/>
      <point x="118" y="253" type="line"/>
    </contour>
    <contour>
      <point x="204" y="331" type="line"/>
      <point x="163" y="336" type="line"/>
      <point x="153" y="323" type="line"/>
      <point x="194" y="318" type="line"/>
    </contour>
    <contour>
      <point x="161" y="337" type="line"/>
      <point x="118" y="378" type="line"/>
      <point x="108" y="365" type="line"/>
      <point x="151" y="324" type="line"/>
    </contour>
    <contour>
      <point x="244" y="331" type="line"/>
      <point x="254" y="318" type="line"/>
      <point x="295" y="323" type="line"/>
      <point x="285" y="336" type="line"/>
    </contour>
    <contour>
      <point x="287" y="337" type="line"/>
      <point x="297" y="324" type="line"/>
      <point x="340" y="365" type="line"/>
      <point x="330" y="379" type="line"/>
    </contour>
    <contour>
      <point x="88" y="254" type="line"/>
      <point x="79" y="266" type="line"/>
      <point x="49" y="228" type="line"/>
      <point x="58" y="216" type="line"/>
    </contour>
    <contour>
      <point x="57" y="215" type="line"/>
      <point x="47" y="227" type="line"/>
      <point x="17" y="230" type="line"/>
      <point x="27" y="217" type="line"/>
    </contour>
    <contour>
      <point x="89" y="363" type="line"/>
      <point x="59" y="361" type="line"/>
      <point x="50" y="349" type="line"/>
      <point x="80" y="351" type="line"/>
    </contour>
    <contour>
      <point x="58" y="362" type="line"/>
      <point x="28" y="400" type="line"/>
      <point x="18" y="387" type="line"/>
      <point x="48" y="350" type="line"/>
    </contour>
    <contour>
      <point x="358" y="363" type="line"/>
      <point x="367" y="351" type="line"/>
      <point x="397" y="349" type="line"/>
      <point x="388" y="361" type="line"/>
    </contour>
    <contour>
      <point x="389" y="362" type="line"/>
      <point x="399" y="350" type="line"/>
      <point x="429" y="387" type="line"/>
      <point x="419" y="400" type="line"/>
    </contour>
    <contour>
      <point x="379" y="227" type="line"/>
      <point x="317" y="227" type="line"/>
      <point x="317" y="212" type="line"/>
      <point x="379" y="212" type="line"/>
    </contour>
    <contour>
      <point x="340" y="285" type="line"/>
      <point x="326" y="290" type="line"/>
      <point x="308" y="222" type="line"/>
      <point x="323" y="217" type="line"/>
    </contour>
    <contour>
      <point x="355" y="285" type="line"/>
      <point x="369" y="217" type="line"/>
      <point x="383" y="222" type="line"/>
      <point x="369" y="290" type="line"/>
    </contour>
    <contour>
      <point x="285" y="257" type="line"/>
      <point x="312" y="218" type="line"/>
      <point x="323" y="228" type="line"/>
      <point x="297" y="265" type="line"/>
    </contour>
    <contour>
      <point x="405" y="257" type="line"/>
      <point x="390" y="265" type="line"/>
      <point x="370" y="223" type="line"/>
      <point x="383" y="215" type="line"/>
    </contour>
    <contour>
      <point x="323" y="217" type="line"/>
      <point x="308" y="222" type="line"/>
      <point x="288" y="197" type="line"/>
      <point x="303" y="192" type="line"/>
    </contour>
    <contour>
      <point x="369" y="219" type="line"/>
      <point x="375" y="192" type="line"/>
      <point x="390" y="197" type="line"/>
      <point x="383" y="229" type="line"/>
    </contour>
    <contour>
      <point x="301" y="255" type="line"/>
      <point x="291" y="267" type="line"/>
      <point x="249" y="225" type="line"/>
      <point x="259" y="213" type="line"/>
    </contour>
    <contour>
      <point x="297" y="272" type="line"/>
      <point x="250" y="302" type="line"/>
      <point x="250" y="287" type="line"/>
      <point x="297" y="257" type="line"/>
    </contour>
    <contour>
      <point x="289" y="270" type="line"/>
      <point x="294" y="256" type="line"/>
      <point x="337" y="288" type="line"/>
      <point x="334" y="301" type="line"/>
    </contour>
    <contour>
      <point x="397" y="269" type="line"/>
      <point x="362" y="298" type="line"/>
      <point x="359" y="285" type="line"/>
      <point x="393" y="255" type="line"/>
    </contour>
    <contour>
      <point x="390" y="257" type="line"/>
      <point x="421" y="249" type="line"/>
      <point x="429" y="262" type="line"/>
      <point x="398" y="270" type="line"/>
    </contour>
  </outline>
</glyph>
<glyph name="A" format="2">
  <advance width="589"/>
  <unicode hex="0041"/>
  <anchor x="287" y="50" name="bottom"/>
  <anchor x="560" y="68" name="ogonek"/>
  <anchor x="287" y="550" name="top"/>
  <outline>
    <contour>
      <point x="567" y="50" type="line"/>
      <point x="587" y="50" type="line"/>
      <point x="417" y="550" type="line"/>
      <point x="398" y="545" type="line"/>
    </contour>
    <contour>
      <point x="23" y="51" type="line"/>
      <point x="102" y="100" type="line"/>
      <point x="87" y="113" type="line"/>
      <point x="9" y="65" type="line"/>
    </contour>
    <contour>
      <point x="8" y="50" type="line"/>
      <point x="182" y="50" type="line"/>
      <point x="182" y="70" type="line"/>
      <point x="8" y="70" type="line"/>
    </contour>
    <contour>
      <point x="171" y="51" type="line"/>
      <point x="185" y="65" type="line"/>
      <point x="107" y="113" type="line"/>
      <point x="92" y="100" type="line"/>
    </contour>
    <contour>
      <point x="182" y="50" type="line"/>
      <point x="202" y="121" type="line"/>
      <point x="183" y="126" type="line"/>
      <point x="163" y="55" type="line"/>
    </contour>
    <contour>
      <point x="187" y="110" type="line"/>
      <point x="199" y="128" type="line"/>
      <point x="117" y="162" type="line"/>
      <point x="102" y="149" type="line"/>
    </contour>
    <contour>
      <point x="190" y="110" type="line"/>
      <point x="342" y="110" type="line"/>
      <point x="346" y="130" type="line"/>
      <point x="190" y="130" type="line"/>
    </contour>
    <contour>
      <point x="116" y="148" type="line"/>
      <point x="244" y="250" type="line"/>
      <point x="235" y="268" type="line"/>
      <point x="107" y="166" type="line"/>
    </contour>
    <contour>
      <point x="2" y="50" type="line"/>
      <point x="22" y="50" type="line"/>
      <point x="181" y="545" type="line"/>
      <point x="162" y="550" type="line"/>
    </contour>
    <contour>
      <point x="347" y="50" type="line"/>
      <point x="366" y="55" type="line"/>
      <point x="344" y="126" type="line"/>
      <point x="325" y="121" type="line"/>
    </contour>
    <contour>
      <point x="113" y="152" type="line"/>
      <point x="429" y="152" type="line"/>
      <point x="429" y="172" type="line"/>
      <point x="113" y="172" type="line"/>
    </contour>
    <contour>
      <point x="103" y="100" type="line"/>
      <point x="205" y="415" type="line"/>
      <point x="186" y="420" type="line"/>
      <point x="84" y="105" type="line"/>
    </contour>
    <contour>
      <point x="359" y="51" type="line"/>
      <point x="446" y="119" type="line"/>
      <point x="430" y="132" type="line"/>
      <point x="345" y="65" type="line"/>
    </contour>
    <contour>
      <point x="347" y="50" type="line"/>
      <point x="577" y="50" type="line"/>
      <point x="577" y="70" type="line"/>
      <point x="347" y="70" type="line"/>
    </contour>
    <contour>
      <point x="233" y="248" type="line"/>
      <point x="302" y="248" type="line"/>
      <point x="302" y="268" type="line"/>
      <point x="233" y="268" type="line"/>
    </contour>
    <contour>
      <point x="339" y="107" type="line"/>
      <point x="437" y="157" type="line"/>
      <point x="421" y="170" type="line"/>
      <point x="325" y="121" type="line"/>
    </contour>
    <contour>
      <point x="242" y="252" type="line"/>
      <point x="276" y="370" type="line"/>
      <point x="257" y="375" type="line"/>
      <point x="223" y="258" type="line"/>
    </contour>
    <contour>
      <point x="292" y="255" type="line"/>
      <point x="311" y="261" type="line"/>
      <point x="275" y="373" type="line"/>
      <point x="256" y="368" type="line"/>
    </contour>
    <contour>
      <point x="413" y="157" type="line"/>
      <point x="428" y="171" type="line"/>
      <point x="302" y="268" type="line"/>
      <point x="293" y="250" type="line"/>
    </contour>
    <contour>
      <point x="568" y="52" type="line"/>
      <point x="580" y="68" type="line"/>
      <point x="440" y="148" type="line"/>
      <point x="428" y="128" type="line"/>
    </contour>
    <contour>
      <point x="257" y="362" type="line"/>
      <point x="276" y="368" type="line"/>
      <point x="206" y="411" type="line"/>
      <point x="186" y="406" type="line"/>
    </contour>
    <contour>
      <point x="434" y="114" type="line"/>
      <point x="454" y="122" type="line"/>
      <point x="346" y="420" type="line"/>
      <point x="327" y="415" type="line"/>
    </contour>
    <contour>
      <point x="186" y="401" type="line"/>
      <point x="205" y="411" type="line"/>
      <point x="178" y="547" type="line"/>
      <point x="160" y="538" type="line"/>
    </contour>
    <contour>
      <point x="276" y="360" type="line"/>
      <point x="343" y="403" type="line"/>
      <point x="324" y="411" type="line"/>
      <point x="257" y="369" type="line"/>
    </contour>
    <contour>
      <point x="186" y="400" type="line"/>
      <point x="346" y="400" type="line"/>
      <point x="346" y="420" type="line"/>
      <point x="186" y="420" type="line"/>
    </contour>
    <contour>
      <point x="162" y="530" type="line"/>
      <point x="417" y="530" type="line"/>
      <point x="417" y="550" type="line"/>
      <point x="162" y="550" type="line"/>
    </contour>
    <contour>
      <point x="340" y="401" type="line"/>
      <point x="417" y="531" type="line"/>
      <point x="403" y="546" type="line"/>
      <point x="327" y="417" type="line"/>
    </contour>
  </outline>
</glyph>
<glyph name="B" format="2">
  <advance width="559"/>
  <unicode hex="0042"/>
  <anchor x="282" y="50" name="bottom"/>
  <anchor x="282" y="300" name="center"/>
  <anchor x="282" y="550" name="top"/>
  <outline>
    <contour>
      <point x="10" y="50" type="line"/>
      <point x="30" y="50" type="line"/>
      <point x="30" y="550" type="line"/>
      <point x="10" y="550" type="line"/>
    </contour>
    <contour>
      <point x="98" y="87" type="line"/>
      <point x="118" y="87" type="line"/>
      <point x="118" y="431" type="line"/>
      <point x="98" y="431" type="line"/>
    </contour>
    <contour>
      <point x="211" y="334" type="line"/>
      <point x="231" y="334" type="line"/>
      <point x="231" y="390" type="line"/>
      <point x="211" y="390" type="line"/>
    </contour>
    <contour>
      <point x="211" y="168" type="line"/>
      <point x="231" y="168" type="line"/>
      <point x="231" y="230" type="line"/>
      <point x="211" y="230" type="line"/>
    </contour>
    <contour>
      <point x="534" y="88" type="line"/>
      <point x="554" y="88" type="line"/>
      <point x="554" y="229" type="line"/>
      <point x="534" y="229" type="line"/>
    </contour>
    <contour>
      <point x="531" y="359" type="line"/>
      <point x="551" y="359" type="line"/>
      <point x="551" y="479" type="line"/>
      <point x="531" y="479" type="line"/>
    </contour>
    <contour>
      <point x="11" y="70" type="line"/>
      <point x="11" y="50" type="line"/>
      <point x="429" y="50" type="line"/>
      <point x="429" y="70" type="line"/>
    </contour>
    <contour>
      <point x="11" y="550" type="line"/>
      <point x="11" y="530" type="line"/>
      <point x="430" y="530" type="line"/>
      <point x="430" y="550" type="line"/>
    </contour>
    <contour>
      <point x="98" y="431" type="line"/>
      <point x="98" y="411" type="line"/>
      <point x="353" y="411" type="line"/>
      <point x="366" y="431" type="line"/>
    </contour>
    <contour>
      <point x="98" y="101" type="line"/>
      <point x="98" y="81" type="line"/>
      <point x="371" y="81" type="line"/>
      <point x="371" y="101" type="line"/>
    </contour>
    <contour>
      <point x="409" y="331" type="line"/>
      <point x="429" y="331" type="line"/>
      <point x="429" y="385" type="line"/>
      <point x="409" y="385" type="line"/>
    </contour>
    <contour>
      <point x="416" y="111" type="line"/>
      <point x="436" y="111" type="line"/>
      <point x="436" y="175" type="line"/>
      <point x="416" y="175" type="line"/>
    </contour>
    <contour>
      <point x="211" y="186" type="line"/>
      <point x="211" y="166" type="line"/>
      <point x="312" y="166" type="line"/>
      <point x="312" y="186" type="line"/>
    </contour>
    <contour>
      <point x="211" y="231" type="line"/>
      <point x="211" y="212" type="line"/>
      <point x="322" y="212" type="line"/>
      <point x="322" y="231" type="line"/>
    </contour>
    <contour>
      <point x="211" y="391" type="line"/>
      <point x="211" y="371" type="line"/>
      <point x="307" y="371" type="line"/>
      <point x="307" y="391" type="line"/>
    </contour>
    <contour>
      <point x="211" y="349" type="line"/>
      <point x="211" y="329" type="line"/>
      <point x="307" y="329" type="line"/>
      <point x="307" y="349" type="line"/>
    </contour>
    <contour>
      <point x="25" y="61" type="line"/>
      <point x="116" y="82" type="line"/>
      <point x="103" y="98" type="line"/>
      <point x="13" y="76" type="line"/>
    </contour>
    <contour>
      <point x="217" y="213" type="line"/>
      <point x="228" y="228" type="line"/>
      <point x="112" y="269" type="line"/>
      <point x="100" y="253" type="line"/>
    </contour>
    <contour>
      <point x="215" y="376" type="line"/>
      <point x="227" y="391" type="line"/>
      <point x="111" y="430" type="line"/>
      <point x="98" y="414" type="line"/>
    </contour>
    <contour>
      <point x="217" y="349" type="line"/>
      <point x="98" y="262" type="line"/>
      <point x="109" y="246" type="line"/>
      <point x="227" y="334" type="line"/>
    </contour>
    <contour>
      <point x="221" y="188" type="line"/>
      <point x="104" y="101" type="line"/>
      <point x="114" y="85" type="line"/>
      <point x="231" y="173" type="line"/>
    </contour>
    <contour>
      <point x="424" y="257" type="line"/>
      <point x="424" y="260" type="line"/>
      <point x="307" y="346" type="line"/>
      <point x="298" y="335" type="line"/>
      <point x="408" y="248" type="line"/>
      <point x="411" y="256" type="line"/>
      <point x="421" y="249" type="line"/>
      <point x="551" y="359" type="line"/>
      <point x="541" y="374" type="line"/>
      <point x="407" y="261" type="line"/>
      <point x="420" y="257" type="line"/>
      <point x="408" y="248" type="line"/>
      <point x="544" y="210" type="line"/>
      <point x="554" y="229" type="line"/>
      <point x="424" y="262" type="line"/>
      <point x="412" y="260" type="line"/>
      <point x="407" y="256" type="line"/>
      <point x="309" y="230" type="line"/>
      <point x="323" y="215" type="line"/>
      <point x="433" y="247" type="line"/>
    </contour>
    <contour>
      <point x="533" y="83" type="line"/>
      <point x="541" y="99" type="line"/>
      <point x="429" y="126" type="line"/>
      <point x="421" y="109" type="line"/>
    </contour>
    <contour>
      <point x="428" y="53" type="line"/>
      <point x="446" y="64" type="line"/>
      <point x="376" y="95" type="line"/>
      <point x="357" y="84" type="line"/>
    </contour>
    <contour>
      <point x="536" y="485" type="line"/>
      <point x="412" y="385" type="line"/>
      <point x="425" y="373" type="line"/>
      <point x="549" y="470" type="line"/>
    </contour>
    <contour>
      <point x="544" y="104" type="line"/>
      <point x="418" y="66" type="line"/>
      <point x="429" y="50" type="line"/>
      <point x="554" y="88" type="line"/>
    </contour>
    <contour>
      <point x="541" y="464" type="line"/>
      <point x="551" y="479" type="line"/>
      <point x="430" y="550" type="line"/>
      <point x="419" y="534" type="line"/>
    </contour>
    <contour>
      <point x="426" y="126" type="line"/>
      <point x="360" y="96" type="line"/>
      <point x="371" y="81" type="line"/>
      <point x="436" y="111" type="line"/>
    </contour>
    <contour>
      <point x="419" y="349" type="line"/>
      <point x="344" y="308" type="line"/>
      <point x="362" y="294" type="line"/>
      <point x="429" y="331" type="line"/>
    </contour>
    <contour>
      <point x="419" y="369" type="line"/>
      <point x="429" y="384" type="line"/>
      <point x="357" y="430" type="line"/>
      <point x="346" y="414" type="line"/>
    </contour>
    <contour>
      <point x="425" y="162" type="line"/>
      <point x="436" y="175" type="line"/>
      <point x="372" y="236" type="line"/>
      <point x="353" y="230" type="line"/>
    </contour>
    <contour>
      <point x="325" y="192" type="line"/>
      <point x="336" y="208" type="line"/>
      <point x="309" y="230" type="line"/>
      <point x="296" y="214" type="line"/>
    </contour>
    <contour>
      <point x="321" y="186" type="line"/>
      <point x="336" y="186" type="line"/>
      <point x="336" y="208" type="line"/>
      <point x="321" y="208" type="line"/>
    </contour>
    <contour>
      <point x="328" y="202" type="line"/>
      <point x="302" y="183" type="line"/>
      <point x="312" y="166" type="line"/>
      <point x="337" y="186" type="line"/>
    </contour>
    <contour>
      <point x="423" y="178" type="line"/>
      <point x="424" y="158" type="line"/>
      <point x="548" y="210" type="line"/>
      <point x="538" y="227" type="line"/>
    </contour>
    <contour>
      <point x="404" y="319" type="line"/>
      <point x="540" y="356" type="line"/>
      <point x="535" y="373" type="line"/>
      <point x="418" y="343" type="line"/>
    </contour>
    <contour>
      <point x="98" y="270" type="line"/>
      <point x="98" y="250" type="line"/>
      <point x="407" y="250" type="line"/>
      <point x="407" y="270" type="line"/>
    </contour>
    <contour>
      <point x="349" y="421" type="line"/>
      <point x="291" y="387" type="line"/>
      <point x="306" y="376" type="line"/>
      <point x="363" y="411" type="line"/>
    </contour>
    <contour>
      <point x="424" y="546" type="line"/>
      <point x="347" y="419" type="line"/>
      <point x="362" y="408" type="line"/>
      <point x="437" y="534" type="line"/>
    </contour>
    <contour>
      <point x="326" y="356" type="line"/>
      <point x="336" y="371" type="line"/>
      <point x="307" y="391" type="line"/>
      <point x="297" y="374" type="line"/>
    </contour>
    <contour>
      <point x="316" y="349" type="line"/>
      <point x="336" y="339" type="line"/>
      <point x="336" y="371" type="line"/>
      <point x="316" y="371" type="line"/>
    </contour>
    <contour>
      <point x="327" y="355" type="line"/>
      <point x="297" y="346" type="line"/>
      <point x="307" y="329" type="line"/>
      <point x="336" y="339" type="line"/>
    </contour>
    <contour>
      <point x="329" y="361" type="line"/>
      <point x="415" y="366" type="line"/>
      <point x="415" y="383" type="line"/>
      <point x="322" y="378" type="line"/>
    </contour>
    <contour>
      <point x="320" y="358" type="line"/>
      <point x="320" y="339" type="line"/>
      <point x="416" y="330" type="line"/>
      <point x="418" y="350" type="line"/>
    </contour>
    <contour>
      <point x="329" y="198" type="line"/>
      <point x="323" y="181" type="line"/>
      <point x="419" y="109" type="line"/>
      <point x="432" y="123" type="line"/>
    </contour>
    <contour>
      <point x="329" y="195" type="line"/>
      <point x="427" y="160" type="line"/>
      <point x="427" y="179" type="line"/>
      <point x="322" y="217" type="line"/>
    </contour>
    <contour>
      <point x="365" y="84" type="line"/>
      <point x="380" y="95" type="line"/>
      <point x="309" y="182" type="line"/>
      <point x="295" y="171" type="line"/>
    </contour>
    <contour>
      <point x="25" y="548" type="line"/>
      <point x="13" y="535" type="line"/>
      <point x="100" y="414" type="line"/>
      <point x="113" y="428" type="line"/>
    </contour>
  </outline>
</glyph>
<glyph name="E" format="2">
  <advance width="475"/>
  <unicode hex="0045"/>
  <anchor x="240" y="50" name="bottom"/>
  <anchor x="428" y="50" name="ogonek"/>
  <anchor x="240" y="550" name="top"/>
  <anchor x="25" y="550" name="topleft"/>
  <outline>
    <contour>
      <point x="23" y="52" type="line"/>
      <point x="135" y="81" type="line"/>
      <point x="122" y="98" type="line"/>
      <point x="10" y="65" type="line"/>
    </contour>
    <contour>
      <point x="10" y="50" type="line"/>
      <point x="30" y="50" type="line"/>
      <point x="30" y="550" type="line"/>
      <point x="10" y="550" type="line"/>
    </contour>
    <contour>
      <point x="120" y="91" type="line"/>
      <point x="140" y="91" type="line"/>
      <point x="140" y="411" type="line"/>
      <point x="120" y="411" type="line"/>
    </contour>
    <contour>
      <point x="240" y="202" type="line"/>
      <point x="250" y="219" type="line"/>
      <point x="132" y="247" type="line"/>
      <point x="128" y="230" type="line"/>
    </contour>
    <contour>
      <point x="233" y="203" type="line"/>
      <point x="370" y="203" type="line"/>
      <point x="370" y="223" type="line"/>
      <point x="233" y="223" type="line"/>
    </contour>
    <contour>
      <point x="140" y="240" type="line"/>
      <point x="255" y="341" type="line"/>
      <point x="240" y="353" type="line"/>
      <point x="125" y="253" type="line"/>
    </contour>
    <contour>
      <point x="122" y="396" type="line"/>
      <point x="135" y="409" type="line"/>
      <point x="28" y="545" type="line"/>
      <point x="15" y="532" type="line"/>
    </contour>
    <contour>
      <point x="140" y="237" type="line"/>
      <point x="269" y="237" type="line"/>
      <point x="269" y="257" type="line"/>
      <point x="140" y="257" type="line"/>
    </contour>
    <contour>
      <point x="240" y="333" type="line"/>
      <point x="370" y="333" type="line"/>
      <point x="370" y="353" type="line"/>
      <point x="240" y="353" type="line"/>
    </contour>
    <contour>
      <point x="358" y="207" type="line"/>
      <point x="374" y="222" type="line"/>
      <point x="256" y="255" type="line"/>
      <point x="238" y="242" type="line"/>
    </contour>
    <contour>
      <point x="264" y="237" type="line"/>
      <point x="373" y="338" type="line"/>
      <point x="360" y="353" type="line"/>
      <point x="243" y="246" type="line"/>
    </contour>
    <contour>
      <point x="360" y="205" type="line"/>
      <point x="380" y="205" type="line"/>
      <point x="380" y="353" type="line"/>
      <point x="360" y="353" type="line"/>
    </contour>
    <contour>
      <point x="230" y="202" type="line"/>
      <point x="250" y="202" type="line"/>
      <point x="250" y="223" type="line"/>
      <point x="230" y="223" type="line"/>
    </contour>
    <contour>
      <point x="20" y="50" type="line"/>
      <point x="460" y="50" type="line"/>
      <point x="460" y="70" type="line"/>
      <point x="20" y="70" type="line"/>
    </contour>
    <contour>
      <point x="139" y="84" type="line"/>
      <point x="249" y="207" type="line"/>
      <point x="236" y="222" type="line"/>
      <point x="124" y="95" type="line"/>
    </contour>
    <contour>
      <point x="126" y="81" type="line"/>
      <point x="350" y="81" type="line"/>
      <point x="350" y="101" type="line"/>
      <point x="126" y="101" type="line"/>
    </contour>
    <contour>
      <point x="236" y="202" type="line"/>
      <point x="460" y="202" type="line"/>
      <point x="460" y="222" type="line"/>
      <point x="236" y="222" type="line"/>
    </contour>
    <contour>
      <point x="450" y="61" type="line"/>
      <point x="463" y="77" type="line"/>
      <point x="350" y="97" type="line"/>
      <point x="335" y="82" type="line"/>
    </contour>
    <contour>
      <point x="351" y="81" type="line"/>
      <point x="467" y="207" type="line"/>
      <point x="454" y="222" type="line"/>
      <point x="334" y="90" type="line"/>
    </contour>
    <contour>
      <point x="450" y="50" type="line"/>
      <point x="470" y="50" type="line"/>
      <point x="470" y="222" type="line"/>
      <point x="450" y="222" type="line"/>
    </contour>
    <contour>
      <point x="20" y="550" type="line"/>
      <point x="20" y="530" type="line"/>
      <point x="460" y="530" type="line"/>
      <point x="460" y="550" type="line"/>
    </contour>
    <contour>
      <point x="141" y="405" type="line"/>
      <point x="126" y="394" type="line"/>
      <point x="236" y="364" type="line"/>
      <point x="249" y="379" type="line"/>
    </contour>
    <contour>
      <point x="126" y="413" type="line"/>
      <point x="126" y="393" type="line"/>
      <point x="350" y="393" type="line"/>
      <point x="350" y="413" type="line"/>
    </contour>
    <contour>
      <point x="230" y="380" type="line"/>
      <point x="230" y="360" type="line"/>
      <point x="460" y="360" type="line"/>
      <point x="460" y="380" type="line"/>
    </contour>
    <contour>
      <point x="446" y="543" type="line"/>
      <point x="333" y="408" type="line"/>
      <point x="348" y="394" type="line"/>
      <point x="463" y="530" type="line"/>
    </contour>
    <contour>
      <point x="346" y="409" type="line"/>
      <point x="321" y="397" type="line"/>
      <point x="450" y="367" type="line"/>
      <point x="463" y="382" type="line"/>
    </contour>
    <contour>
      <point x="450" y="550" type="line"/>
      <point x="450" y="360" type="line"/>
      <point x="470" y="360" type="line"/>
      <point x="470" y="550" type="line"/>
    </contour>
    <contour>
      <point x="230" y="333" type="line"/>
      <point x="250" y="333" type="line"/>
      <point x="250" y="378" type="line"/>
      <point x="230" y="378" type="line"/>
    </contour>
  </outline>
</glyph>
<glyph name="F" format="2">
  <advance width="475"/>
  <unicode hex="0046"/>
  <anchor x="240" y="50" name="bottom"/>
  <anchor x="240" y="550" name="top"/>
  <outline>
    <contour>
      <point x="23" y="50" type="line"/>
      <point x="135" y="99" type="line"/>
      <point x="122" y="112" type="line"/>
      <point x="10" y="63" type="line"/>
    </contour>
    <contour>
      <point x="10" y="50" type="line"/>
      <point x="30" y="50" type="line"/>
      <point x="30" y="550" type="line"/>
      <point x="10" y="550" type="line"/>
    </contour>
    <contour>
      <point x="120" y="107" type="line"/>
      <point x="140" y="107" type="line"/>
      <point x="140" y="411" type="line"/>
      <point x="120" y="411" type="line"/>
    </contour>
    <contour>
      <point x="235" y="204" type="line"/>
      <point x="248" y="220" type="line"/>
      <point x="135" y="247" type="line"/>
      <point x="120" y="233" type="line"/>
    </contour>
    <contour>
      <point x="230" y="203" type="line"/>
      <point x="374" y="203" type="line"/>
      <point x="374" y="223" type="line"/>
      <point x="230" y="223" type="line"/>
    </contour>
    <contour>
      <point x="136" y="234" type="line"/>
      <point x="253" y="339" type="line"/>
      <point x="240" y="353" type="line"/>
      <point x="120" y="247" type="line"/>
    </contour>
    <contour>
      <point x="122" y="396" type="line"/>
      <point x="135" y="409" type="line"/>
      <point x="23" y="550" type="line"/>
      <point x="10" y="537" type="line"/>
    </contour>
    <contour>
      <point x="140" y="237" type="line"/>
      <point x="264" y="237" type="line"/>
      <point x="264" y="257" type="line"/>
      <point x="140" y="257" type="line"/>
    </contour>
    <contour>
      <point x="230" y="333" type="line"/>
      <point x="370" y="333" type="line"/>
      <point x="370" y="353" type="line"/>
      <point x="230" y="353" type="line"/>
    </contour>
    <contour>
      <point x="360" y="205" type="line"/>
      <point x="373" y="221" type="line"/>
      <point x="255" y="256" type="line"/>
      <point x="240" y="241" type="line"/>
    </contour>
    <contour>
      <point x="264" y="236" type="line"/>
      <point x="373" y="338" type="line"/>
      <point x="360" y="353" type="line"/>
      <point x="247" y="250" type="line"/>
    </contour>
    <contour>
      <point x="360" y="203" type="line"/>
      <point x="380" y="203" type="line"/>
      <point x="380" y="353" type="line"/>
      <point x="360" y="353" type="line"/>
    </contour>
    <contour>
      <point x="230" y="50" type="line"/>
      <point x="250" y="50" type="line"/>
      <point x="250" y="218" type="line"/>
      <point x="230" y="218" type="line"/>
    </contour>
    <contour>
      <point x="20" y="550" type="line"/>
      <point x="20" y="530" type="line"/>
      <point x="460" y="530" type="line"/>
      <point x="460" y="550" type="line"/>
    </contour>
    <contour>
      <point x="141" y="405" type="line"/>
      <point x="126" y="394" type="line"/>
      <point x="236" y="360" type="line"/>
      <point x="249" y="375" type="line"/>
    </contour>
    <contour>
      <point x="126" y="413" type="line"/>
      <point x="126" y="393" type="line"/>
      <point x="356" y="393" type="line"/>
      <point x="356" y="413" type="line"/>
    </contour>
    <contour>
      <point x="230" y="380" type="line"/>
      <point x="230" y="360" type="line"/>
      <point x="460" y="360" type="line"/>
      <point x="460" y="380" type="line"/>
    </contour>
    <contour>
      <point x="446" y="543" type="line"/>
      <point x="334" y="410" type="line"/>
      <point x="350" y="396" type="line"/>
      <point x="463" y="530" type="line"/>
    </contour>
    <contour>
      <point x="347" y="413" type="line"/>
      <point x="329" y="398" type="line"/>
      <point x="450" y="367" type="line"/>
      <point x="463" y="382" type="line"/>
    </contour>
    <contour>
      <point x="450" y="550" type="line"/>
      <point x="450" y="360" type="line"/>
      <point x="470" y="360" type="line"/>
      <point x="470" y="550" type="line"/>
    </contour>
    <contour>
      <point x="230" y="340" type="line"/>
      <point x="250" y="340" type="line"/>
      <point x="250" y="378" type="line"/>
      <point x="230" y="378" type="line"/>
    </contour>
    <contour>
      <point x="10" y="50" type="line"/>
      <point x="250" y="50" type="line"/>
      <point x="250" y="70" type="line"/>
      <point x="10" y="70" type="line"/>
    </contour>
    <contour>
      <point x="237" y="50" type="line"/>
      <point x="250" y="63" type="line"/>
      <point x="138" y="115" type="line"/>
      <point x="125" y="102" type="line"/>
    </contour>
  </outline>
</glyph>
<glyph name="G" format="2">
  <advance width="571"/>
  <unicode hex="0047"/>
  <anchor x="284" y="50" name="bottom"/>
  <anchor x="284" y="550" name="top"/>
  <outline>
    <contour>
      <point x="541" y="410" type="line"/>
      <point x="541" y="309" type="line"/>
      <point x="561" y="309" type="line"/>
      <point x="561" y="410" type="line"/>
    </contour>
    <contour>
      <point x="561" y="309" type="line"/>
      <point x="541" y="309" type="line"/>
    </contour>
    <contour>
      <point x="387" y="535" type="line"/>
      <point x="548" y="395" type="line"/>
      <point x="561" y="410" type="line"/>
      <point x="400" y="550" type="line"/>
    </contour>
    <contour>
      <point x="561" y="410" type="line"/>
      <point x="548" y="395" type="line"/>
    </contour>
    <contour>
      <point x="326" y="309" type="line"/>
      <point x="551" y="309" type="line"/>
      <point x="551" y="329" type="line"/>
      <point x="326" y="329" type="line"/>
    </contour>
    <contour>
      <point x="445" y="375" type="line"/>
      <point x="533" y="317" type="line"/>
      <point x="547" y="331" type="line"/>
      <point x="459" y="389" type="line"/>
    </contour>
    <contour>
      <point x="551" y="415" type="line"/>
      <point x="439" y="388" type="line"/>
      <point x="443" y="368" type="line"/>
      <point x="554" y="395" type="line"/>
    </contour>
    <contour>
      <point x="454" y="387" type="line"/>
      <point x="326" y="329" type="line"/>
      <point x="339" y="314" type="line"/>
      <point x="467" y="372" type="line"/>
    </contour>
    <contour>
      <point x="163" y="50" type="line"/>
      <point x="178" y="64" type="line"/>
      <point x="20" y="194" type="line"/>
      <point x="5" y="180" type="line"/>
    </contour>
    <contour>
      <point x="24" y="189" type="line"/>
      <point x="111" y="184" type="line"/>
      <point x="105" y="201" type="line"/>
      <point x="18" y="206" type="line"/>
    </contour>
    <contour>
      <point x="171" y="57" type="line"/>
      <point x="223" y="101" type="line"/>
      <point x="206" y="111" type="line"/>
      <point x="154" y="67" type="line"/>
    </contour>
    <contour>
      <point x="163" y="50" type="line"/>
      <point x="349" y="50" type="line"/>
      <point x="349" y="70" type="line"/>
      <point x="163" y="70" type="line"/>
    </contour>
    <contour>
      <point x="199" y="89" type="line"/>
      <point x="213" y="103" type="line"/>
      <point x="112" y="204" type="line"/>
      <point x="97" y="190" type="line"/>
    </contour>
    <contour>
      <point x="5" y="180" type="line"/>
      <point x="26" y="180" type="line"/>
      <point x="26" y="410" type="line"/>
      <point x="5" y="410" type="line"/>
    </contour>
    <contour>
      <point x="113" y="186" type="line"/>
      <point x="233" y="254" type="line"/>
      <point x="227" y="272" type="line"/>
      <point x="107" y="204" type="line"/>
    </contour>
    <contour>
      <point x="199" y="89" type="line"/>
      <point x="332" y="89" type="line"/>
      <point x="332" y="108" type="line"/>
      <point x="199" y="108" type="line"/>
    </contour>
    <contour>
      <point x="219" y="96" type="line"/>
      <point x="263" y="227" type="line"/>
      <point x="248" y="239" type="line"/>
      <point x="203" y="107" type="line"/>
    </contour>
    <contour>
      <point x="341" y="60" type="line"/>
      <point x="361" y="67" type="line"/>
      <point x="334" y="103" type="line"/>
      <point x="315" y="96" type="line"/>
    </contour>
    <contour>
      <point x="97" y="190" type="line"/>
      <point x="118" y="190" type="line"/>
      <point x="118" y="345" type="line"/>
      <point x="97" y="345" type="line"/>
    </contour>
    <contour>
      <point x="320" y="93" type="line"/>
      <point x="336" y="105" type="line"/>
      <point x="309" y="234" type="line"/>
      <point x="293" y="222" type="line"/>
    </contour>
    <contour>
      <point x="105" y="330" type="line"/>
      <point x="112" y="348" type="line"/>
      <point x="26" y="414" type="line"/>
      <point x="19" y="396" type="line"/>
    </contour>
    <contour>
      <point x="20" y="396" type="line"/>
      <point x="181" y="536" type="line"/>
      <point x="166" y="550" type="line"/>
      <point x="5" y="410" type="line"/>
    </contour>
    <contour>
      <point x="111" y="332" type="line"/>
      <point x="216" y="409" type="line"/>
      <point x="203" y="422" type="line"/>
      <point x="97" y="345" type="line"/>
    </contour>
    <contour>
      <point x="256" y="366" type="line"/>
      <point x="273" y="378" type="line"/>
      <point x="215" y="415" type="line"/>
      <point x="198" y="403" type="line"/>
    </contour>
    <contour>
      <point x="199" y="407" type="line"/>
      <point x="218" y="414" type="line"/>
      <point x="185" y="542" type="line"/>
      <point x="164" y="535" type="line"/>
    </contour>
    <contour>
      <point x="203" y="403" type="line"/>
      <point x="363" y="403" type="line"/>
      <point x="363" y="422" type="line"/>
      <point x="203" y="422" type="line"/>
    </contour>
    <contour>
      <point x="166" y="532" type="line"/>
      <point x="400" y="532" type="line"/>
      <point x="400" y="550" type="line"/>
      <point x="166" y="550" type="line"/>
    </contour>
    <contour>
      <point x="225" y="345" type="line"/>
      <point x="231" y="361" type="line"/>
      <point x="113" y="347" type="line"/>
      <point x="107" y="331" type="line"/>
    </contour>
    <contour>
      <point x="219" y="257" type="line"/>
      <point x="239" y="257" type="line"/>
      <point x="239" y="357" type="line"/>
      <point x="219" y="357" type="line"/>
    </contour>
    <contour>
      <point x="250" y="217" type="line"/>
      <point x="306" y="217" type="line"/>
      <point x="306" y="235" type="line"/>
      <point x="250" y="235" type="line"/>
    </contour>
    <contour>
      <point x="255" y="363" type="line"/>
      <point x="312" y="363" type="line"/>
      <point x="312" y="381" type="line"/>
      <point x="255" y="381" type="line"/>
    </contour>
    <contour>
      <point x="308" y="217" type="line"/>
      <point x="346" y="251" type="line"/>
      <point x="329" y="264" type="line"/>
      <point x="294" y="231" type="line"/>
    </contour>
    <contour>
      <point x="326" y="253" type="line"/>
      <point x="346" y="251" type="line"/>
      <point x="346" y="299" type="line"/>
      <point x="326" y="299" type="line"/>
    </contour>
    <contour>
      <point x="335" y="345" type="line"/>
      <point x="345" y="363" type="line"/>
      <point x="312" y="381" type="line"/>
      <point x="298" y="367" type="line"/>
    </contour>
    <contour>
      <point x="450" y="375" type="line"/>
      <point x="465" y="390" type="line"/>
      <point x="363" y="422" type="line"/>
      <point x="353" y="406" type="line"/>
    </contour>
    <contour>
      <point x="307" y="361" type="line"/>
      <point x="369" y="404" type="line"/>
      <point x="352" y="416" type="line"/>
      <point x="293" y="372" type="line"/>
    </contour>
    <contour>
      <point x="370" y="406" type="line"/>
      <point x="411" y="531" type="line"/>
      <point x="395" y="543" type="line"/>
      <point x="353" y="417" type="line"/>
    </contour>
    <contour>
      <point x="332" y="89" type="line"/>
      <point x="456" y="200" type="line"/>
      <point x="442" y="214" type="line"/>
      <point x="318" y="103" type="line"/>
    </contour>
    <contour>
      <point x="326" y="312" type="line"/>
      <point x="346" y="312" type="line"/>
      <point x="346" y="361" type="line"/>
      <point x="326" y="361" type="line"/>
    </contour>
    <contour>
      <point x="326" y="278" type="line"/>
      <point x="561" y="278" type="line"/>
      <point x="561" y="299" type="line"/>
      <point x="326" y="299" type="line"/>
    </contour>
    <contour>
      <point x="349" y="50" type="line"/>
      <point x="454" y="139" type="line"/>
      <point x="441" y="154" type="line"/>
      <point x="336" y="65" type="line"/>
    </contour>
    <contour>
      <point x="541" y="288" type="line"/>
      <point x="541" y="50" type="line"/>
      <point x="561" y="50" type="line"/>
      <point x="561" y="288" type="line"/>
    </contour>
    <contour>
      <point x="441" y="135" type="line"/>
      <point x="540" y="50" type="line"/>
      <point x="554" y="66" type="line"/>
      <point x="456" y="150" type="line"/>
    </contour>
    <contour>
      <point x="250" y="221" type="line"/>
      <point x="264" y="235" type="line"/>
      <point x="233" y="271" type="line"/>
      <point x="219" y="257" type="line"/>
    </contour>
    <contour>
      <point x="228" y="341" type="line"/>
      <point x="270" y="364" type="line"/>
      <point x="261" y="380" type="line"/>
      <point x="219" y="357" type="line"/>
    </contour>
    <contour>
      <point x="458" y="196" type="line"/>
      <point x="551" y="273" type="line"/>
      <point x="537" y="287" type="line"/>
      <point x="444" y="210" type="line"/>
    </contour>
    <contour>
      <point x="438" y="139" type="line"/>
      <point x="458" y="139" type="line"/>
      <point x="458" y="208" type="line"/>
      <point x="438" y="208" type="line"/>
    </contour>
    <contour>
      <point x="434" y="196" type="line"/>
      <point x="448" y="210" type="line"/>
      <point x="351" y="287" type="line"/>
      <point x="337" y="273" type="line"/>
    </contour>
    <contour>
      <point x="334" y="351" type="line"/>
      <point x="456" y="371" type="line"/>
      <point x="450" y="387" type="line"/>
      <point x="328" y="367" type="line"/>
    </contour>
    <contour>
      <point x="432" y="186" type="line"/>
      <point x="446" y="200" type="line"/>
      <point x="339" y="264" type="line"/>
      <point x="325" y="250" type="line"/>
    </contour>
  </outline>
</glyph>
<glyph name="H" format="2">
  <advance width="570"/>
  <unicode hex="0048"/>
  <anchor x="285" y="50" name="bottom"/>
  <anchor x="285" y="300" name="center"/>
  <anchor x="285" y="550" name="top"/>
  <anchor x="25" y="550" name="topleft"/>
  <outline>
    <contour>
      <point x="10" y="50" type="line"/>
      <point x="250" y="50" type="line"/>
      <point x="250" y="69" type="line"/>
      <point x="10" y="69" type="line"/>
    </contour>
    <contour>
      <point x="23" y="50" type="line"/>
      <point x="135" y="106" type="line"/>
      <point x="122" y="121" type="line"/>
      <point x="10" y="66" type="line"/>
    </contour>
    <contour>
      <point x="10" y="50" type="line"/>
      <point x="30" y="50" type="line"/>
      <point x="30" y="550" type="line"/>
      <point x="10" y="550" type="line"/>
    </contour>
    <contour>
      <point x="237" y="50" type="line"/>
      <point x="250" y="66" type="line"/>
      <point x="138" y="121" type="line"/>
      <point x="125" y="106" type="line"/>
    </contour>
    <contour>
      <point x="230" y="50" type="line"/>
      <point x="250" y="50" type="line"/>
      <point x="250" y="221" type="line"/>
      <point x="230" y="227" type="line"/>
    </contour>
    <contour>
      <point x="120" y="104" type="line"/>
      <point x="140" y="104" type="line"/>
      <point x="140" y="403" type="line"/>
      <point x="120" y="403" type="line"/>
    </contour>
    <contour>
      <point x="320" y="50" type="line"/>
      <point x="340" y="50" type="line"/>
      <point x="340" y="227" type="line"/>
      <point x="320" y="221" type="line"/>
    </contour>
    <contour>
      <point x="240" y="211" type="line"/>
      <point x="253" y="227" type="line"/>
      <point x="135" y="257" type="line"/>
      <point x="120" y="247" type="line"/>
    </contour>
    <contour>
      <point x="320" y="50" type="line"/>
      <point x="560" y="50" type="line"/>
      <point x="560" y="69" type="line"/>
      <point x="320" y="69" type="line"/>
    </contour>
    <contour>
      <point x="333" y="50" type="line"/>
      <point x="445" y="106" type="line"/>
      <point x="432" y="121" type="line"/>
      <point x="320" y="66" type="line"/>
    </contour>
    <contour>
      <point x="240" y="210" type="line"/>
      <point x="330" y="210" type="line"/>
      <point x="330" y="230" type="line"/>
      <point x="240" y="230" type="line"/>
    </contour>
    <contour>
      <point x="135" y="241" type="line"/>
      <point x="253" y="362" type="line"/>
      <point x="240" y="377" type="line"/>
      <point x="120" y="252" type="line"/>
    </contour>
    <contour>
      <point x="547" y="50" type="line"/>
      <point x="560" y="66" type="line"/>
      <point x="448" y="121" type="line"/>
      <point x="435" y="106" type="line"/>
    </contour>
    <contour>
      <point x="122" y="388" type="line"/>
      <point x="135" y="401" type="line"/>
      <point x="23" y="550" type="line"/>
      <point x="10" y="537" type="line"/>
    </contour>
    <contour>
      <point x="140" y="248" type="line"/>
      <point x="430" y="248" type="line"/>
      <point x="430" y="268" type="line"/>
      <point x="140" y="268" type="line"/>
    </contour>
    <contour>
      <point x="330" y="211" type="line"/>
      <point x="450" y="249" type="line"/>
      <point x="436" y="259" type="line"/>
      <point x="317" y="228" type="line"/>
    </contour>
    <contour>
      <point x="240" y="357" type="line"/>
      <point x="330" y="357" type="line"/>
      <point x="330" y="377" type="line"/>
      <point x="240" y="377" type="line"/>
    </contour>
    <contour>
      <point x="15" y="530" type="line"/>
      <point x="250" y="530" type="line"/>
      <point x="250" y="550" type="line"/>
      <point x="15" y="550" type="line"/>
    </contour>
    <contour>
      <point x="137" y="388" type="line"/>
      <point x="249" y="537" type="line"/>
      <point x="236" y="550" type="line"/>
      <point x="124" y="401" type="line"/>
    </contour>
    <contour>
      <point x="230" y="367" type="line"/>
      <point x="250" y="367" type="line"/>
      <point x="250" y="550" type="line"/>
      <point x="230" y="550" type="line"/>
    </contour>
    <contour>
      <point x="435" y="243" type="line"/>
      <point x="450" y="254" type="line"/>
      <point x="330" y="377" type="line"/>
      <point x="317" y="364" type="line"/>
    </contour>
    <contour>
      <point x="430" y="104" type="line"/>
      <point x="450" y="104" type="line"/>
      <point x="450" y="403" type="line"/>
      <point x="430" y="403" type="line"/>
    </contour>
    <contour>
      <point x="320" y="367" type="line"/>
      <point x="340" y="367" type="line"/>
      <point x="340" y="550" type="line"/>
      <point x="320" y="550" type="line"/>
    </contour>
    <contour>
      <point x="540" y="50" type="line"/>
      <point x="560" y="50" type="line"/>
      <point x="560" y="550" type="line"/>
      <point x="540" y="550" type="line"/>
    </contour>
    <contour>
      <point x="432" y="388" type="line"/>
      <point x="445" y="401" type="line"/>
      <point x="333" y="550" type="line"/>
      <point x="320" y="537" type="line"/>
    </contour>
    <contour>
      <point x="447" y="388" type="line"/>
      <point x="559" y="537" type="line"/>
      <point x="546" y="550" type="line"/>
      <point x="434" y="401" type="line"/>
    </contour>
    <contour>
      <point x="325" y="530" type="line"/>
      <point x="560" y="530" type="line"/>
      <point x="560" y="550" type="line"/>
      <point x="325" y="550" type="line"/>
    </contour>
  </outline>
</glyph>
<glyph name="J" format="2">
  <advance width="319"/>
  <unicode hex="004A"/>
  <anchor x="187" y="50" name="bottom"/>
  <anchor x="187" y="550" name="top"/>
  <outline>
    <contour>
      <point x="141" y="50" type="line"/>
      <point x="309" y="196" type="line"/>
      <point x="295" y="210" type="line"/>
      <point x="127" y="64" type="line"/>
    </contour>
    <contour>
      <point x="5" y="50" type="line"/>
      <point x="141" y="50" type="line"/>
      <point x="141" y="70" type="line"/>
      <point x="5" y="70" type="line"/>
    </contour>
    <contour>
      <point x="5" y="50" type="line"/>
      <point x="25" y="50" type="line"/>
      <point x="25" y="242" type="line"/>
      <point x="5" y="242" type="line"/>
    </contour>
    <contour>
      <point x="25" y="54" type="line"/>
      <point x="97" y="92" type="line"/>
      <point x="83" y="103" type="line"/>
      <point x="13" y="70" type="line"/>
    </contour>
    <contour>
      <point x="129" y="59" type="line"/>
      <point x="146" y="68" type="line"/>
      <point x="94" y="96" type="line"/>
      <point x="77" y="87" type="line"/>
    </contour>
    <contour>
      <point x="6" y="222" type="line"/>
      <point x="45" y="222" type="line"/>
      <point x="45" y="242" type="line"/>
      <point x="6" y="242" type="line"/>
    </contour>
    <contour>
      <point x="79" y="84" type="line"/>
      <point x="97" y="93" type="line"/>
      <point x="49" y="241" type="line"/>
      <point x="31" y="232" type="line"/>
    </contour>
    <contour>
      <point x="45" y="218" type="line"/>
      <point x="92" y="257" type="line"/>
      <point x="80" y="275" type="line"/>
      <point x="33" y="238" type="line"/>
    </contour>
    <contour>
      <point x="92" y="85" type="line"/>
      <point x="196" y="188" type="line"/>
      <point x="182" y="202" type="line"/>
      <point x="78" y="99" type="line"/>
    </contour>
    <contour>
      <point x="177" y="186" type="line"/>
      <point x="185" y="203" type="line"/>
      <point x="78" y="279" type="line"/>
      <point x="72" y="262" type="line"/>
    </contour>
    <contour>
      <point x="174" y="184" type="line"/>
      <point x="303" y="190" type="line"/>
      <point x="309" y="209" type="line"/>
      <point x="180" y="203" type="line"/>
    </contour>
    <contour>
      <point x="72" y="261" type="line"/>
      <point x="92" y="261" type="line"/>
      <point x="92" y="550" type="line"/>
      <point x="72" y="550" type="line"/>
    </contour>
    <contour>
      <point x="176" y="188" type="line"/>
      <point x="196" y="188" type="line"/>
      <point x="196" y="406" type="line"/>
      <point x="176" y="406" type="line"/>
    </contour>
    <contour>
      <point x="289" y="196" type="line"/>
      <point x="309" y="196" type="line"/>
      <point x="309" y="550" type="line"/>
      <point x="289" y="550" type="line"/>
    </contour>
    <contour>
      <point x="177" y="393" type="line"/>
      <point x="193" y="404" type="line"/>
      <point x="95" y="538" type="line"/>
      <point x="75" y="529" type="line"/>
    </contour>
    <contour>
      <point x="76" y="530" type="line"/>
      <point x="306" y="530" type="line"/>
      <point x="306" y="550" type="line"/>
      <point x="76" y="550" type="line"/>
    </contour>
    <contour>
      <point x="192" y="392" type="line"/>
      <point x="304" y="529" type="line"/>
      <point x="284" y="536" type="line"/>
      <point x="178" y="405" type="line"/>
    </contour>
  </outline>
</glyph>
<glyph name="R" format="2">
  <advance width="594"/>
  <unicode hex="0052"/>
  <anchor x="300" y="50" name="bottom"/>
  <anchor x="300" y="550" name="top"/>
  <outline>
    <contour>
      <point x="10" y="50" type="line"/>
      <point x="260" y="50" type="line"/>
      <point x="260" y="70" type="line"/>
      <point x="10" y="70" type="line"/>
    </contour>
    <contour>
      <point x="10" y="50" type="line"/>
      <point x="30" y="50" type="line"/>
      <point x="30" y="550" type="line"/>
      <point x="10" y="550" type="line"/>
    </contour>
    <contour>
      <point x="240" y="50" type="line"/>
      <point x="260" y="50" type="line"/>
      <point x="260" y="228" type="line"/>
      <point x="240" y="228" type="line"/>
    </contour>
    <contour>
      <point x="14" y="550" type="line"/>
      <point x="34" y="550" type="line"/>
    </contour>
    <contour>
      <point x="23" y="50" type="line"/>
      <point x="131" y="113" type="line"/>
      <point x="118" y="126" type="line"/>
      <point x="10" y="63" type="line"/>
    </contour>
    <contour>
      <point x="247" y="50" type="line"/>
      <point x="260" y="63" type="line"/>
      <point x="128" y="125" type="line"/>
      <point x="114" y="111" type="line"/>
    </contour>
    <contour>
      <point x="111" y="109" type="line"/>
      <point x="131" y="109" type="line"/>
      <point x="131" y="425" type="line"/>
      <point x="111" y="425" type="line"/>
    </contour>
    <contour>
      <point x="325" y="50" type="line"/>
      <point x="345" y="57" type="line"/>
      <point x="262" y="232" type="line"/>
      <point x="244" y="227" type="line"/>
    </contour>
    <contour>
      <point x="326" y="50" type="line"/>
      <point x="572" y="50" type="line"/>
      <point x="572" y="70" type="line"/>
      <point x="326" y="70" type="line"/>
    </contour>
    <contour>
      <point x="568" y="50" type="line"/>
      <point x="589" y="50" type="line"/>
      <point x="466" y="279" type="line"/>
      <point x="446" y="274" type="line"/>
    </contour>
    <contour>
      <point x="545" y="327" type="line"/>
      <point x="565" y="327" type="line"/>
      <point x="565" y="480" type="line"/>
      <point x="545" y="480" type="line"/>
    </contour>
    <contour>
      <point x="461" y="265" type="line"/>
      <point x="565" y="327" type="line"/>
      <point x="555" y="343" type="line"/>
      <point x="451" y="280" type="line"/>
    </contour>
    <contour>
      <point x="377" y="268" type="line"/>
      <point x="443" y="324" type="line"/>
      <point x="432" y="336" type="line"/>
      <point x="367" y="282" type="line"/>
    </contour>
    <contour>
      <point x="115" y="268" type="line"/>
      <point x="384" y="268" type="line"/>
      <point x="384" y="288" type="line"/>
      <point x="115" y="288" type="line"/>
    </contour>
    <contour>
      <point x="14" y="550" type="line"/>
      <point x="14" y="530" type="line"/>
      <point x="452" y="530" type="line"/>
      <point x="452" y="550" type="line"/>
    </contour>
    <contour>
      <point x="111" y="430" type="line"/>
      <point x="111" y="410" type="line"/>
      <point x="373" y="410" type="line"/>
      <point x="373" y="430" type="line"/>
    </contour>
    <contour>
      <point x="436" y="391" type="line"/>
      <point x="557" y="459" type="line"/>
      <point x="550" y="477" type="line"/>
      <point x="428" y="407" type="line"/>
    </contour>
    <contour>
      <point x="382" y="417" type="line"/>
      <point x="454" y="535" type="line"/>
      <point x="441" y="548" type="line"/>
      <point x="366" y="427" type="line"/>
    </contour>
    <contour>
      <point x="557" y="462" type="line"/>
      <point x="565" y="480" type="line"/>
      <point x="452" y="550" type="line"/>
      <point x="439" y="536" type="line"/>
    </contour>
    <contour>
      <point x="431" y="391" type="line"/>
      <point x="439" y="406" type="line"/>
      <point x="374" y="432" type="line"/>
      <point x="365" y="418" type="line"/>
    </contour>
    <contour>
      <point x="418" y="113" type="line"/>
      <point x="437" y="122" type="line"/>
      <point x="366" y="270" type="line"/>
      <point x="346" y="262" type="line"/>
    </contour>
    <contour>
      <point x="322" y="376" type="line"/>
      <point x="383" y="413" type="line"/>
      <point x="368" y="426" type="line"/>
      <point x="308" y="388" type="line"/>
    </contour>
    <contour>
      <point x="246" y="213" type="line"/>
      <point x="261" y="228" type="line"/>
      <point x="130" y="282" type="line"/>
      <point x="117" y="264" type="line"/>
    </contour>
    <contour>
      <point x="257" y="212" type="line"/>
      <point x="387" y="271" type="line"/>
      <point x="376" y="285" type="line"/>
      <point x="246" y="228" type="line"/>
    </contour>
    <contour>
      <point x="424" y="317" type="line"/>
      <point x="551" y="325" type="line"/>
      <point x="555" y="346" type="line"/>
      <point x="428" y="337" type="line"/>
    </contour>
    <contour>
      <point x="377" y="269" type="line"/>
      <point x="456" y="264" type="line"/>
      <point x="464" y="281" type="line"/>
      <point x="385" y="285" type="line"/>
    </contour>
    <contour>
      <point x="224" y="392" type="line"/>
      <point x="224" y="372" type="line"/>
      <point x="322" y="372" type="line"/>
      <point x="322" y="392" type="line"/>
    </contour>
    <contour>
      <point x="244" y="392" type="line"/>
      <point x="224" y="392" type="line"/>
      <point x="224" y="349" type="line"/>
      <point x="244" y="349" type="line"/>
    </contour>
    <contour>
      <point x="114" y="414" type="line"/>
      <point x="229" y="373" type="line"/>
      <point x="241" y="388" type="line"/>
      <point x="122" y="429" type="line"/>
    </contour>
    <contour>
      <point x="224" y="369" type="line"/>
      <point x="224" y="349" type="line"/>
      <point x="322" y="349" type="line"/>
      <point x="322" y="369" type="line"/>
    </contour>
    <contour>
      <point x="442" y="406" type="line"/>
      <point x="422" y="406" type="line"/>
      <point x="422" y="326" type="line"/>
      <point x="442" y="326" type="line"/>
    </contour>
    <contour>
      <point x="343" y="374" type="line"/>
      <point x="323" y="374" type="line"/>
      <point x="323" y="368" type="line"/>
      <point x="343" y="368" type="line"/>
    </contour>
    <contour>
      <point x="124" y="276" type="line"/>
      <point x="242" y="354" type="line"/>
      <point x="235" y="374" type="line"/>
      <point x="116" y="292" type="line"/>
    </contour>
    <contour>
      <point x="310" y="363" type="line"/>
      <point x="322" y="349" type="line"/>
      <point x="343" y="369" type="line"/>
      <point x="328" y="380" type="line"/>
    </contour>
    <contour>
      <point x="310" y="378" type="line"/>
      <point x="325" y="364" type="line"/>
      <point x="343" y="374" type="line"/>
      <point x="322" y="392" type="line"/>
    </contour>
    <contour>
      <point x="419" y="133" type="line"/>
      <point x="325" y="67" type="line"/>
      <point x="342" y="59" type="line"/>
      <point x="433" y="123" type="line"/>
    </contour>
    <contour>
      <point x="561" y="61" type="line"/>
      <point x="572" y="75" type="line"/>
      <point x="432" y="130" type="line"/>
      <point x="419" y="116" type="line"/>
    </contour>
    <contour>
      <point x="306" y="356" type="line"/>
      <point x="376" y="270" type="line"/>
      <point x="387" y="281" type="line"/>
      <point x="318" y="366" type="line"/>
    </contour>
    <contour>
      <point x="328" y="362" type="line"/>
      <point x="440" y="394" type="line"/>
      <point x="430" y="410" type="line"/>
      <point x="322" y="382" type="line"/>
    </contour>
    <contour>
      <point x="329" y="379" type="line"/>
      <point x="320" y="360" type="line"/>
      <point x="428" y="319" type="line"/>
      <point x="436" y="337" type="line"/>
    </contour>
    <contour>
      <point x="114" y="413" type="line"/>
      <point x="131" y="425" type="line"/>
      <point x="36" y="538" type="line"/>
      <point x="20" y="525" type="line"/>
    </contour>
  </outline>
</glyph>
<glyph name="S" format="2">
  <advance width="437"/>
  <unicode hex="0053"/>
  <anchor x="219" y="50" name="bottom"/>
  <anchor x="219" y="550" name="top"/>
  <outline>
    <contour>
      <point x="313" y="193" type="line"/>
      <point x="323" y="209" type="line"/>
      <point x="100" y="277" type="line"/>
      <point x="90" y="261" type="line"/>
    </contour>
    <contour>
      <point x="140" y="50" type="line"/>
      <point x="150" y="65" type="line"/>
      <point x="15" y="163" type="line"/>
      <point x="5" y="148" type="line"/>
    </contour>
    <contour>
      <point x="5" y="148" type="line"/>
      <point x="25" y="148" type="line"/>
      <point x="25" y="225" type="line"/>
      <point x="5" y="225" type="line"/>
    </contour>
    <contour>
      <point x="140" y="50" type="line"/>
      <point x="280" y="50" type="line"/>
      <point x="280" y="70" type="line"/>
      <point x="140" y="70" type="line"/>
    </contour>
    <contour>
      <point x="150" y="90" type="line"/>
      <point x="160" y="106" type="line"/>
      <point x="86" y="162" type="line"/>
      <point x="76" y="146" type="line"/>
    </contour>
    <contour>
      <point x="146" y="109" type="line"/>
      <point x="163" y="104" type="line"/>
      <point x="193" y="184" type="line"/>
      <point x="175" y="189" type="line"/>
    </contour>
    <contour>
      <point x="76" y="146" type="line"/>
      <point x="96" y="146" type="line"/>
      <point x="96" y="225" type="line"/>
      <point x="76" y="225" type="line"/>
    </contour>
    <contour>
      <point x="9" y="205" type="line"/>
      <point x="161" y="205" type="line"/>
      <point x="157" y="225" type="line"/>
      <point x="9" y="225" type="line"/>
    </contour>
    <contour>
      <point x="152" y="90" type="line"/>
      <point x="259" y="90" type="line"/>
      <point x="259" y="110" type="line"/>
      <point x="152" y="110" type="line"/>
    </contour>
    <contour>
      <point x="273" y="52" type="line"/>
      <point x="290" y="60" type="line"/>
      <point x="267" y="106" type="line"/>
      <point x="249" y="98" type="line"/>
    </contour>
    <contour>
      <point x="175" y="172" type="line"/>
      <point x="186" y="188" type="line"/>
      <point x="152" y="210" type="line"/>
      <point x="141" y="195" type="line"/>
    </contour>
    <contour>
      <point x="141" y="195" type="line"/>
      <point x="161" y="195" type="line"/>
      <point x="161" y="225" type="line"/>
      <point x="141" y="225" type="line"/>
    </contour>
    <contour>
      <point x="173" y="173" type="line"/>
      <point x="204" y="174" type="line"/>
      <point x="204" y="194" type="line"/>
      <point x="173" y="193" type="line"/>
    </contour>
    <contour>
      <point x="204" y="174" type="line"/>
      <point x="228" y="185" type="line"/>
      <point x="212" y="199" type="line"/>
      <point x="193" y="190" type="line"/>
    </contour>
    <contour>
      <point x="218" y="191" type="line"/>
      <point x="228" y="206" type="line"/>
      <point x="15" y="273" type="line"/>
      <point x="5" y="258" type="line"/>
    </contour>
    <contour>
      <point x="208" y="193" type="line"/>
      <point x="228" y="185" type="line"/>
      <point x="228" y="206" type="line"/>
      <point x="208" y="206" type="line"/>
    </contour>
    <contour>
      <point x="262" y="89" type="line"/>
      <point x="323" y="152" type="line"/>
      <point x="313" y="167" type="line"/>
      <point x="251" y="105" type="line"/>
    </contour>
    <contour>
      <point x="5" y="258" type="line"/>
      <point x="25" y="258" type="line"/>
      <point x="25" y="430" type="line"/>
      <point x="5" y="430" type="line"/>
    </contour>
    <contour>
      <point x="280" y="50" type="line"/>
      <point x="432" y="169" type="line"/>
      <point x="421" y="184" type="line"/>
      <point x="267" y="66" type="line"/>
    </contour>
    <contour>
      <point x="420" y="160" type="line"/>
      <point x="425" y="180" type="line"/>
      <point x="314" y="166" type="line"/>
      <point x="309" y="146" type="line"/>
    </contour>
    <contour>
      <point x="303" y="152" type="line"/>
      <point x="323" y="152" type="line"/>
      <point x="323" y="209" type="line"/>
      <point x="303" y="209" type="line"/>
    </contour>
    <contour>
      <point x="90" y="261" type="line"/>
      <point x="110" y="261" type="line"/>
      <point x="110" y="329" type="line"/>
      <point x="90" y="329" type="line"/>
    </contour>
    <contour>
      <point x="105" y="258" type="line"/>
      <point x="220" y="335" type="line"/>
      <point x="214" y="352" type="line"/>
      <point x="99" y="275" type="line"/>
    </contour>
    <contour>
      <point x="218" y="338" type="line"/>
      <point x="221" y="357" type="line"/>
      <point x="105" y="334" type="line"/>
      <point x="100" y="316" type="line"/>
    </contour>
    <contour>
      <point x="16" y="414" type="line"/>
      <point x="141" y="534" type="line"/>
      <point x="130" y="550" type="line"/>
      <point x="5" y="430" type="line"/>
    </contour>
    <contour>
      <point x="316" y="192" type="line"/>
      <point x="424" y="271" type="line"/>
      <point x="417" y="288" type="line"/>
      <point x="309" y="210" type="line"/>
    </contour>
    <contour>
      <point x="412" y="169" type="line"/>
      <point x="432" y="169" type="line"/>
      <point x="432" y="287" type="line"/>
      <point x="412" y="287" type="line"/>
    </contour>
    <contour>
      <point x="201" y="333" type="line"/>
      <point x="221" y="333" type="line"/>
      <point x="221" y="356" type="line"/>
      <point x="201" y="349" type="line"/>
    </contour>
    <contour>
      <point x="100" y="314" type="line"/>
      <point x="199" y="394" type="line"/>
      <point x="189" y="409" type="line"/>
      <point x="90" y="329" type="line"/>
    </contour>
    <contour>
      <point x="422" y="270" type="line"/>
      <point x="432" y="287" type="line"/>
      <point x="211" y="345" type="line"/>
      <point x="201" y="331" type="line"/>
    </contour>
    <contour>
      <point x="212" y="335" type="line"/>
      <point x="239" y="352" type="line"/>
      <point x="229" y="367" type="line"/>
      <point x="201" y="349" type="line"/>
    </contour>
    <contour>
      <point x="229" y="350" type="line"/>
      <point x="258" y="350" type="line"/>
      <point x="258" y="367" type="line"/>
      <point x="229" y="367" type="line"/>
    </contour>
    <contour>
      <point x="269" y="317" type="line"/>
      <point x="289" y="317" type="line"/>
      <point x="289" y="350" type="line"/>
      <point x="269" y="347" type="line"/>
    </contour>
    <contour>
      <point x="280" y="336" type="line"/>
      <point x="293" y="350" type="line"/>
      <point x="258" y="367" type="line"/>
      <point x="246" y="351" type="line"/>
    </contour>
    <contour>
      <point x="248" y="354" type="line"/>
      <point x="268" y="354" type="line"/>
      <point x="278" y="389" type="line"/>
      <point x="258" y="389" type="line"/>
    </contour>
    <contour>
      <point x="189" y="389" type="line"/>
      <point x="273" y="389" type="line"/>
      <point x="273" y="409" type="line"/>
      <point x="189" y="409" type="line"/>
    </contour>
    <contour>
      <point x="273" y="317" type="line"/>
      <point x="412" y="317" type="line"/>
      <point x="412" y="337" type="line"/>
      <point x="269" y="337" type="line"/>
    </contour>
    <contour>
      <point x="329" y="348" type="line"/>
      <point x="348" y="361" type="line"/>
      <point x="279" y="406" type="line"/>
      <point x="268" y="390" type="line"/>
    </contour>
    <contour>
      <point x="130" y="530" type="line"/>
      <point x="301" y="530" type="line"/>
      <point x="301" y="550" type="line"/>
      <point x="130" y="550" type="line"/>
    </contour>
    <contour>
      <point x="339" y="363" type="line"/>
      <point x="350" y="347" type="line"/>
      <point x="405" y="422" type="line"/>
      <point x="396" y="440" type="line"/>
    </contour>
    <contour>
      <point x="277" y="385" type="line"/>
      <point x="309" y="531" type="line"/>
      <point x="290" y="537" type="line"/>
      <point x="259" y="391" type="line"/>
    </contour>
    <contour>
      <point x="392" y="322" type="line"/>
      <point x="412" y="322" type="line"/>
      <point x="412" y="434" type="line"/>
      <point x="392" y="432" type="line"/>
    </contour>
    <contour>
      <point x="402" y="415" type="line"/>
      <point x="412" y="434" type="line"/>
      <point x="301" y="550" type="line"/>
      <point x="291" y="533" type="line"/>
    </contour>
    <contour>
      <point x="163" y="104" type="line"/>
      <point x="146" y="109" type="line"/>
      <point x="132" y="69" type="line"/>
      <point x="149" y="63" type="line"/>
    </contour>
    <contour>
      <point x="350" y="347" type="line"/>
      <point x="339" y="363" type="line"/>
      <point x="276" y="347" type="line"/>
      <point x="285" y="333" type="line"/>
    </contour>
    <contour>
      <point x="100" y="309" type="line"/>
      <point x="106" y="334" type="line"/>
      <point x="24" y="435" type="line"/>
      <point x="11" y="419" type="line"/>
    </contour>
    <contour>
      <point x="16" y="259" type="line"/>
      <point x="109" y="259" type="line"/>
      <point x="103" y="277" type="line"/>
      <point x="10" y="277" type="line"/>
    </contour>
    <contour>
      <point x="218" y="190" type="line"/>
      <point x="315" y="191" type="line"/>
      <point x="307" y="209" type="line"/>
      <point x="212" y="208" type="line"/>
    </contour>
    <contour>
      <point x="309" y="144" type="line"/>
      <point x="314" y="162" type="line"/>
      <point x="217" y="203" type="line"/>
      <point x="212" y="184" type="line"/>
    </contour>
  </outline>
</glyph>
<glyph name="T" format="2">
  <advance width="530"/>
  <unicode hex="0054"/>
  <anchor x="265" y="50" name="bottom"/>
  <anchor x="265" y="300" name="center"/>
  <anchor x="265" y="550" name="top"/>
  <outline>
    <contour>
      <point x="161" y="58" type="line"/>
      <point x="270" y="102" type="line"/>
      <point x="257" y="115" type="line"/>
      <point x="148" y="71" type="line"/>
    </contour>
    <contour>
      <point x="145" y="50" type="line"/>
      <point x="385" y="50" type="line"/>
      <point x="385" y="70" type="line"/>
      <point x="145" y="70" type="line"/>
    </contour>
    <contour>
      <point x="145" y="50" type="line"/>
      <point x="165" y="50" type="line"/>
      <point x="165" y="330" type="line"/>
      <point x="145" y="330" type="line"/>
    </contour>
    <contour>
      <point x="370" y="58" type="line"/>
      <point x="383" y="71" type="line"/>
      <point x="274" y="115" type="line"/>
      <point x="261" y="102" type="line"/>
    </contour>
    <contour>
      <point x="6" y="316" type="line"/>
      <point x="154" y="316" type="line"/>
      <point x="165" y="336" type="line"/>
      <point x="6" y="336" type="line"/>
    </contour>
    <contour>
      <point x="22" y="329" type="line"/>
      <point x="106" y="373" type="line"/>
      <point x="93" y="387" type="line"/>
      <point x="8" y="341" type="line"/>
    </contour>
    <contour>
      <point x="5" y="316" type="line"/>
      <point x="25" y="316" type="line"/>
      <point x="25" y="550" type="line"/>
      <point x="5" y="550" type="line"/>
    </contour>
    <contour>
      <point x="255" y="100" type="line"/>
      <point x="275" y="100" type="line"/>
      <point x="275" y="375" type="line"/>
      <point x="255" y="375" type="line"/>
    </contour>
    <contour>
      <point x="365" y="50" type="line"/>
      <point x="385" y="50" type="line"/>
      <point x="385" y="330" type="line"/>
      <point x="365" y="330" type="line"/>
    </contour>
    <contour>
      <point x="92" y="373" type="line"/>
      <point x="105" y="387" type="line"/>
      <point x="29" y="544" type="line"/>
      <point x="15" y="532" type="line"/>
    </contour>
    <contour>
      <point x="158" y="319" type="line"/>
      <point x="270" y="371" type="line"/>
      <point x="257" y="384" type="line"/>
      <point x="145" y="332" type="line"/>
    </contour>
    <contour>
      <point x="371" y="320" type="line"/>
      <point x="384" y="333" type="line"/>
      <point x="272" y="384" type="line"/>
      <point x="259" y="371" type="line"/>
    </contour>
    <contour>
      <point x="93" y="371" type="line"/>
      <point x="437" y="371" type="line"/>
      <point x="437" y="391" type="line"/>
      <point x="93" y="391" type="line"/>
    </contour>
    <contour>
      <point x="376" y="316" type="line"/>
      <point x="524" y="316" type="line"/>
      <point x="524" y="336" type="line"/>
      <point x="376" y="336" type="line"/>
    </contour>
    <contour>
      <point x="6" y="530" type="line"/>
      <point x="524" y="530" type="line"/>
      <point x="524" y="550" type="line"/>
      <point x="6" y="550" type="line"/>
    </contour>
    <contour>
      <point x="509" y="329" type="line"/>
      <point x="523" y="341" type="line"/>
      <point x="438" y="387" type="line"/>
      <point x="425" y="373" type="line"/>
    </contour>
    <contour>
      <point x="505" y="316" type="line"/>
      <point x="525" y="316" type="line"/>
      <point x="525" y="550" type="line"/>
      <point x="505" y="550" type="line"/>
    </contour>
    <contour>
      <point x="438" y="373" type="line"/>
      <point x="513" y="538" type="line"/>
      <point x="499" y="550" type="line"/>
      <point x="425" y="387" type="line"/>
    </contour>
  </outline>
</glyph>
<glyph name="Z" format="2">
  <advance width="568"/>
  <unicode hex="005A"/>
  <anchor x="284" y="50" name="bottom"/>
  <anchor x="284" y="300" name="center"/>
  <anchor x="284" y="550" name="top"/>
  <outline>
    <contour>
      <point x="11" y="69" type="line"/>
      <point x="560" y="69" type="line"/>
    </contour>
    <contour>
      <point x="563" y="50" type="line"/>
      <point x="563" y="282" type="line"/>
      <point x="543" y="282" type="line"/>
      <point x="543" y="50" type="line"/>
    </contour>
    <contour>
      <point x="376" y="264" type="line"/>
      <point x="563" y="264" type="line"/>
      <point x="563" y="284" type="line"/>
      <point x="383" y="284" type="line"/>
    </contour>
    <contour>
      <point x="435" y="106" type="line"/>
      <point x="559" y="269" type="line"/>
      <point x="545" y="284" type="line"/>
      <point x="420" y="119" type="line"/>
    </contour>
    <contour>
      <point x="537" y="62" type="line"/>
      <point x="551" y="77" type="line"/>
      <point x="440" y="123" type="line"/>
      <point x="425" y="108" type="line"/>
    </contour>
    <contour>
      <point x="180" y="105" type="line"/>
      <point x="445" y="105" type="line"/>
      <point x="445" y="125" type="line"/>
      <point x="180" y="125" type="line"/>
    </contour>
    <contour>
      <point x="197" y="108" type="line"/>
      <point x="394" y="270" type="line"/>
      <point x="383" y="286" type="line"/>
      <point x="188" y="125" type="line"/>
    </contour>
    <contour>
      <point x="31" y="59" type="line"/>
      <point x="196" y="108" type="line"/>
      <point x="188" y="128" type="line"/>
      <point x="18" y="75" type="line"/>
    </contour>
    <contour>
      <point x="20" y="50" type="line"/>
      <point x="177" y="326" type="line"/>
      <point x="155" y="327" type="line"/>
      <point x="-3" y="50" type="line"/>
    </contour>
    <contour>
      <point x="5" y="530" type="line"/>
      <point x="545" y="530" type="line"/>
      <point x="545" y="550" type="line"/>
      <point x="5" y="550" type="line"/>
    </contour>
    <contour>
      <point x="6" y="50" type="line"/>
      <point x="560" y="50" type="line"/>
      <point x="560" y="69" type="line"/>
      <point x="13" y="69" type="line"/>
    </contour>
    <contour>
      <point x="391" y="267" type="line"/>
      <point x="558" y="550" type="line"/>
      <point x="536" y="550" type="line"/>
      <point x="373" y="275" type="line"/>
    </contour>
    <contour>
      <point x="25" y="315" type="line"/>
      <point x="25" y="548" type="line"/>
      <point x="5" y="549" type="line"/>
      <point x="5" y="315" type="line"/>
    </contour>
    <contour>
      <point x="10" y="315" type="line"/>
      <point x="163" y="315" type="line"/>
      <point x="163" y="332" type="line"/>
      <point x="10" y="332" type="line"/>
    </contour>
    <contour>
      <point x="169" y="314" type="line"/>
      <point x="345" y="365" type="line"/>
      <point x="333" y="379" type="line"/>
      <point x="152" y="329" type="line"/>
    </contour>
    <contour>
      <point x="123" y="371" type="line"/>
      <point x="350" y="371" type="line"/>
      <point x="350" y="391" type="line"/>
      <point x="123" y="391" type="line"/>
    </contour>
    <contour>
      <point x="26" y="319" type="line"/>
      <point x="141" y="379" type="line"/>
      <point x="120" y="388" type="line"/>
      <point x="8" y="329" type="line"/>
    </contour>
    <contour>
      <point x="195" y="113" type="line"/>
      <point x="362" y="387" type="line"/>
      <point x="339" y="387" type="line"/>
      <point x="172" y="115" type="line"/>
    </contour>
    <contour>
      <point x="347" y="369" type="line"/>
      <point x="542" y="531" type="line"/>
      <point x="532" y="546" type="line"/>
      <point x="336" y="386" type="line"/>
    </contour>
    <contour>
      <point x="120" y="369" type="line"/>
      <point x="138" y="379" type="line"/>
      <point x="24" y="551" type="line"/>
      <point x="7" y="540" type="line"/>
    </contour>
  </outline>
</glyph>
<glyph name="backslash" format="2">
  <advance width="352"/>
  <unicode hex="005C"/>
  <outline>
    <contour>
      <point x="334" y="10" type="line"/>
      <point x="352" y="10" type="line"/>
      <point x="98" y="590" type="line"/>
      <point x="81" y="590" type="line"/>
    </contour>
    <contour>
      <point x="253" y="10" type="line"/>
      <point x="271" y="10" type="line"/>
      <point x="18" y="590" type="line"/>
      <point x="0" y="590" type="line"/>
    </contour>
    <contour>
      <point x="89" y="504" type="line"/>
      <point x="101" y="575" type="line"/>
      <point x="87" y="590" type="line"/>
      <point x="77" y="519" type="line"/>
    </contour>
    <contour>
      <point x="84" y="503" type="line"/>
      <point x="90" y="518" type="line"/>
      <point x="13" y="590" type="line"/>
      <point x="7" y="574" type="line"/>
    </contour>
    <contour>
      <point x="98" y="570" type="line"/>
      <point x="98" y="590" type="line"/>
      <point x="7" y="590" type="line"/>
      <point x="17" y="570" type="line"/>
    </contour>
    <contour>
      <point x="287" y="54" type="line"/>
      <point x="251" y="25" type="line"/>
      <point x="265" y="10" type="line"/>
      <point x="299" y="39" type="line"/>
    </contour>
    <contour>
      <point x="292" y="55" type="line"/>
      <point x="285" y="40" type="line"/>
      <point x="339" y="10" type="line"/>
      <point x="345" y="26" type="line"/>
    </contour>
    <contour>
      <point x="253" y="30" type="line"/>
      <point x="253" y="10" type="line"/>
      <point x="344" y="10" type="line"/>
      <point x="344" y="30" type="line"/>
    </contour>
    <contour>
      <point x="286" y="33" type="line"/>
      <point x="300" y="44" type="line"/>
      <point x="88" y="527" type="line"/>
      <point x="73" y="521" type="line"/>
    </contour>
  </outline>
</glyph>
<glyph name="exclamdown" format="2">
  <advance width="240"/>
  <unicode hex="00A1"/>
  <outline>
    <contour>
      <point x="10" y="50" type="line"/>
      <point x="30" y="50" type="line"/>
      <point x="95" y="360" type="line"/>
      <point x="75" y="360" type="line"/>
    </contour>
    <contour>
      <point x="31" y="55" type="line"/>
      <point x="125" y="89" type="line"/>
      <point x="112" y="104" type="line"/>
      <point x="18" y="70" type="line"/>
    </contour>
    <contour>
      <point x="19" y="50" type="line"/>
      <point x="220" y="50" type="line"/>
      <point x="220" y="70" type="line"/>
      <point x="19" y="70" type="line"/>
    </contour>
    <contour>
      <point x="208" y="55" type="line"/>
      <point x="221" y="70" type="line"/>
      <point x="127" y="104" type="line"/>
      <point x="114" y="89" type="line"/>
    </contour>
    <contour>
      <point x="110" y="87" type="line"/>
      <point x="130" y="87" type="line"/>
      <point x="130" y="350" type="line"/>
      <point x="110" y="350" type="line"/>
    </contour>
    <contour>
      <point x="210" y="50" type="line"/>
      <point x="230" y="50" type="line"/>
      <point x="166" y="360" type="line"/>
      <point x="146" y="360" type="line"/>
    </contour>
    <contour>
      <point x="75" y="340" type="line"/>
      <point x="166" y="340" type="line"/>
      <point x="166" y="360" type="line"/>
      <point x="75" y="360" type="line"/>
    </contour>
    <contour>
      <point x="51" y="375" type="line"/>
      <point x="123" y="404" type="line"/>
      <point x="114" y="424" type="line"/>
      <point x="37" y="389" type="line"/>
    </contour>
    <contour>
      <point x="37" y="375" type="line"/>
      <point x="57" y="375" type="line"/>
      <point x="57" y="550" type="line"/>
      <point x="37" y="550" type="line"/>
    </contour>
    <contour>
      <point x="40" y="375" type="line"/>
      <point x="202" y="375" type="line"/>
      <point x="202" y="393" type="line"/>
      <point x="40" y="393" type="line"/>
    </contour>
    <contour>
      <point x="113" y="411" type="line"/>
      <point x="122" y="431" type="line"/>
      <point x="51" y="550" type="line"/>
      <point x="37" y="536" type="line"/>
    </contour>
    <contour>
      <point x="187" y="375" type="line"/>
      <point x="201" y="389" type="line"/>
      <point x="125" y="424" type="line"/>
      <point x="116" y="404" type="line"/>
    </contour>
    <contour>
      <point x="113" y="409" type="line"/>
      <point x="126" y="409" type="line"/>
      <point x="126" y="426" type="line"/>
      <point x="113" y="426" type="line"/>
    </contour>
    <contour>
      <point x="182" y="375" type="line"/>
      <point x="202" y="375" type="line"/>
      <point x="202" y="550" type="line"/>
      <point x="182" y="550" type="line"/>
    </contour>
    <contour>
      <point x="37" y="532" type="line"/>
      <point x="202" y="532" type="line"/>
      <point x="202" y="550" type="line"/>
      <point x="37" y="550" type="line"/>
    </contour>
    <contour>
      <point x="125" y="410" type="line"/>
      <point x="202" y="536" type="line"/>
      <point x="188" y="550" type="line"/>
      <point x="116" y="430" type="line"/>
    </contour>
  </outline>
</glyph>
<glyph name="periodcentered" format="2">
  <advance width="224"/>
  <unicode hex="00B7"/>
  <outline>
    <contour>
      <point x="15" y="203" type="line"/>
      <point x="209" y="203" type="line"/>
      <point x="209" y="222" type="line"/>
      <point x="15" y="222" type="line"/>
    </contour>
    <contour>
      <point x="30" y="203" type="line"/>
      <point x="116" y="238" type="line"/>
      <point x="104" y="256" type="line"/>
      <point x="15" y="218" type="line"/>
    </contour>
    <contour>
      <point x="194" y="203" type="line"/>
      <point x="209" y="218" type="line"/>
      <point x="119" y="257" type="line"/>
      <point x="107" y="239" type="line"/>
    </contour>
    <contour>
      <point x="15" y="203" type="line"/>
      <point x="34" y="203" type="line"/>
      <point x="34" y="407" type="line"/>
      <point x="15" y="407" type="line"/>
    </contour>
    <contour>
      <point x="104" y="241" type="line"/>
      <point x="120" y="241" type="line"/>
      <point x="120" y="257" type="line"/>
      <point x="104" y="257" type="line"/>
    </contour>
    <contour>
      <point x="190" y="203" type="line"/>
      <point x="209" y="203" type="line"/>
      <point x="209" y="407" type="line"/>
      <point x="190" y="407" type="line"/>
    </contour>
    <contour>
      <point x="105" y="242" type="line"/>
      <point x="117" y="260" type="line"/>
      <point x="30" y="407" type="line"/>
      <point x="15" y="392" type="line"/>
    </contour>
    <contour>
      <point x="19" y="388" type="line"/>
      <point x="209" y="388" type="line"/>
      <point x="209" y="407" type="line"/>
      <point x="19" y="407" type="line"/>
    </contour>
    <contour>
      <point x="119" y="242" type="line"/>
      <point x="208" y="392" type="line"/>
      <point x="193" y="407" type="line"/>
      <point x="107" y="260" type="line"/>
    </contour>
  </outline>
</glyph>
<glyph name="questiondown" format="2">
  <advance width="401"/>
  <unicode hex="00BF"/>
  <outline>
    <contour>
      <point x="201" y="242" type="line"/>
      <point x="80" y="185" type="line"/>
      <point x="90" y="169" type="line"/>
      <point x="211" y="227" type="line"/>
    </contour>
    <contour>
      <point x="146" y="286" type="line"/>
      <point x="5" y="249" type="line"/>
      <point x="17" y="233" type="line"/>
      <point x="158" y="270" type="line"/>
    </contour>
    <contour>
      <point x="160" y="360" type="line"/>
      <point x="136" y="269" type="line"/>
      <point x="156" y="269" type="line"/>
      <point x="180" y="360" type="line"/>
    </contour>
    <contour>
      <point x="5" y="249" type="line"/>
      <point x="5" y="145" type="line"/>
      <point x="25" y="145" type="line"/>
      <point x="25" y="249" type="line"/>
    </contour>
    <contour>
      <point x="232" y="360" type="line"/>
      <point x="191" y="360" type="line"/>
      <point x="191" y="341" type="line"/>
      <point x="232" y="341" type="line"/>
    </contour>
    <contour>
      <point x="192" y="353" type="line"/>
      <point x="192" y="227" type="line"/>
      <point x="212" y="227" type="line"/>
      <point x="212" y="353" type="line"/>
    </contour>
    <contour>
      <point x="75" y="186" type="line"/>
      <point x="75" y="132" type="line"/>
      <point x="95" y="132" type="line"/>
      <point x="95" y="186" type="line"/>
    </contour>
    <contour>
      <point x="93" y="190" type="line"/>
      <point x="87" y="172" type="line"/>
      <point x="188" y="192" type="line"/>
      <point x="194" y="210" type="line"/>
    </contour>
    <contour>
      <point x="180" y="187" type="line"/>
      <point x="85" y="137" type="line"/>
      <point x="89" y="120" type="line"/>
      <point x="193" y="174" type="line"/>
    </contour>
    <contour>
      <point x="16" y="161" type="line"/>
      <point x="5" y="145" type="line"/>
      <point x="131" y="50" type="line"/>
      <point x="143" y="66" type="line"/>
    </contour>
    <contour>
      <point x="195" y="243" type="line"/>
      <point x="197" y="223" type="line"/>
      <point x="257" y="242" type="line"/>
      <point x="256" y="261" type="line"/>
    </contour>
    <contour>
      <point x="227" y="360" type="line"/>
      <point x="246" y="246" type="line"/>
      <point x="266" y="245" type="line"/>
      <point x="247" y="360" type="line"/>
    </contour>
    <contour>
      <point x="173" y="206" type="line"/>
      <point x="173" y="172" type="line"/>
      <point x="193" y="172" type="line"/>
      <point x="193" y="206" type="line"/>
    </contour>
    <contour>
      <point x="87" y="147" type="line"/>
      <point x="75" y="132" type="line"/>
      <point x="145" y="73" type="line"/>
      <point x="157" y="88" type="line"/>
    </contour>
    <contour>
      <point x="256" y="261" type="line"/>
      <point x="173" y="203" type="line"/>
      <point x="183" y="187" type="line"/>
      <point x="266" y="245" type="line"/>
    </contour>
    <contour>
      <point x="186" y="188" type="line"/>
      <point x="175" y="173" type="line"/>
      <point x="201" y="159" type="line"/>
      <point x="211" y="174" type="line"/>
    </contour>
    <contour>
      <point x="201" y="180" type="line"/>
      <point x="201" y="159" type="line"/>
      <point x="231" y="159" type="line"/>
      <point x="231" y="180" type="line"/>
    </contour>
    <contour>
      <point x="242" y="194" type="line"/>
      <point x="242" y="176" type="line"/>
      <point x="262" y="176" type="line"/>
      <point x="262" y="194" type="line"/>
    </contour>
    <contour>
      <point x="251" y="192" type="line"/>
      <point x="222" y="176" type="line"/>
      <point x="233" y="161" type="line"/>
      <point x="262" y="177" type="line"/>
    </contour>
    <contour>
      <point x="218" y="173" type="line"/>
      <point x="249" y="86" type="line"/>
      <point x="269" y="86" type="line"/>
      <point x="235" y="180" type="line"/>
    </contour>
    <contour>
      <point x="147" y="91" type="line"/>
      <point x="143" y="73" type="line"/>
      <point x="269" y="73" type="line"/>
      <point x="259" y="91" type="line"/>
    </contour>
    <contour>
      <point x="242" y="209" type="line"/>
      <point x="242" y="189" type="line"/>
      <point x="396" y="189" type="line"/>
      <point x="396" y="209" type="line"/>
    </contour>
    <contour>
      <point x="308" y="147" type="line"/>
      <point x="253" y="92" type="line"/>
      <point x="265" y="76" type="line"/>
      <point x="322" y="135" type="line"/>
    </contour>
    <contour>
      <point x="131" y="70" type="line"/>
      <point x="131" y="50" type="line"/>
      <point x="277" y="50" type="line"/>
      <point x="274" y="70" type="line"/>
    </contour>
    <contour>
      <point x="309" y="130" type="line"/>
      <point x="384" y="143" type="line"/>
      <point x="381" y="159" type="line"/>
      <point x="310" y="148" type="line"/>
    </contour>
    <contour>
      <point x="266" y="92" type="line"/>
      <point x="247" y="86" type="line"/>
      <point x="265" y="55" type="line"/>
      <point x="283" y="61" type="line"/>
    </contour>
    <contour>
      <point x="376" y="189" type="line"/>
      <point x="376" y="147" type="line"/>
      <point x="396" y="144" type="line"/>
      <point x="396" y="189" type="line"/>
    </contour>
    <contour>
      <point x="386" y="162" type="line"/>
      <point x="264" y="65" type="line"/>
      <point x="277" y="50" type="line"/>
      <point x="396" y="144" type="line"/>
    </contour>
    <contour>
      <point x="321" y="147" type="line"/>
      <point x="256" y="193" type="line"/>
      <point x="249" y="177" type="line"/>
      <point x="313" y="131" type="line"/>
    </contour>
    <contour>
      <point x="86" y="137" type="line"/>
      <point x="11" y="161" type="line"/>
      <point x="15" y="143" type="line"/>
      <point x="99" y="114" type="line"/>
    </contour>
    <contour>
      <point x="18" y="251" type="line"/>
      <point x="12" y="234" type="line"/>
      <point x="86" y="171" type="line"/>
      <point x="92" y="189" type="line"/>
    </contour>
    <contour>
      <point x="144" y="286" type="line"/>
      <point x="138" y="268" type="line"/>
      <point x="191" y="225" type="line"/>
      <point x="197" y="242" type="line"/>
    </contour>
    <contour>
      <point x="203" y="360" type="line"/>
      <point x="164" y="360" type="line"/>
      <point x="164" y="341" type="line"/>
      <point x="203" y="341" type="line"/>
    </contour>
    <contour>
      <point x="286" y="550" type="line"/>
      <point x="121" y="550" type="line"/>
      <point x="121" y="532" type="line"/>
      <point x="286" y="532" type="line"/>
    </contour>
    <contour>
      <point x="272" y="550" type="line"/>
      <point x="201" y="429" type="line"/>
      <point x="210" y="409" type="line"/>
      <point x="286" y="536" type="line"/>
    </contour>
    <contour>
      <point x="135" y="550" type="line"/>
      <point x="121" y="536" type="line"/>
      <point x="198" y="408" type="line"/>
      <point x="207" y="428" type="line"/>
    </contour>
    <contour>
      <point x="286" y="550" type="line"/>
      <point x="266" y="550" type="line"/>
      <point x="266" y="375" type="line"/>
      <point x="286" y="375" type="line"/>
    </contour>
    <contour>
      <point x="210" y="424" type="line"/>
      <point x="197" y="424" type="line"/>
      <point x="197" y="407" type="line"/>
      <point x="210" y="407" type="line"/>
    </contour>
    <contour>
      <point x="141" y="550" type="line"/>
      <point x="121" y="550" type="line"/>
      <point x="121" y="375" type="line"/>
      <point x="141" y="375" type="line"/>
    </contour>
    <contour>
      <point x="209" y="422" type="line"/>
      <point x="200" y="402" type="line"/>
      <point x="272" y="375" type="line"/>
      <point x="286" y="389" type="line"/>
    </contour>
    <contour>
      <point x="283" y="393" type="line"/>
      <point x="121" y="393" type="line"/>
      <point x="121" y="375" type="line"/>
      <point x="283" y="375" type="line"/>
    </contour>
    <contour>
      <point x="198" y="422" type="line"/>
      <point x="122" y="389" type="line"/>
      <point x="136" y="375" type="line"/>
      <point x="207" y="402" type="line"/>
    </contour>
    <contour>
      <point x="191" y="171" type="line"/>
      <point x="138" y="84" type="line"/>
      <point x="156" y="78" type="line"/>
      <point x="210" y="171" type="line"/>
    </contour>
    <contour>
      <point x="145" y="88" type="line"/>
      <point x="118" y="65" type="line"/>
      <point x="136" y="59" type="line"/>
      <point x="164" y="78" type="line"/>
    </contour>
  </outline>
</glyph>
